<svg width="393" height="129" viewBox="0 0 393 129" fill="none" xmlns="http://www.w3.org/2000/svg">
<g opacity="0.1">
<path opacity="0.1" d="M128.13 125.12V128.12H125.13" stroke="#20263C" stroke-miterlimit="10"/>
<path opacity="0.1" d="M119.36 128.12H6.88" stroke="#20263C" stroke-miterlimit="10" stroke-dasharray="5.77 5.77"/>
<path opacity="0.1" d="M4 128.12H1V125.12" stroke="#20263C" stroke-miterlimit="10"/>
<path opacity="0.1" d="M1 119.35V6.87988" stroke="#20263C" stroke-miterlimit="10" stroke-dasharray="5.77 5.77"/>
<path opacity="0.1" d="M1 4V1H4" stroke="#20263C" stroke-miterlimit="10"/>
<path opacity="0.1" d="M9.77002 1H122.24" stroke="#20263C" stroke-miterlimit="10" stroke-dasharray="5.77 5.77"/>
<path opacity="0.1" d="M125.13 1H128.13V4" stroke="#20263C" stroke-miterlimit="10"/>
<path opacity="0.1" d="M128.13 9.76001V122.24" stroke="#20263C" stroke-miterlimit="10" stroke-dasharray="5.77 5.77"/>
</g>
<path d="M48.3 43.7199L52.3 45.7199C53.0363 46.0415 53.8375 46.1864 54.6397 46.143C55.4419 46.0996 56.2228 45.8691 56.92 45.4699L60.7001 43.0099C61.3505 42.5378 61.8799 41.9183 62.2449 41.2022C62.6099 40.4861 62.8002 39.6937 62.8 38.8899L62.5601 34.3799C62.4725 33.5826 62.1989 32.8169 61.7612 32.1447C61.3234 31.4725 60.7339 30.9125 60.04 30.5099L56.04 28.4599C55.3052 28.1345 54.504 27.9867 53.7014 28.0284C52.8988 28.0701 52.1172 28.3001 51.42 28.6999L47.6401 31.1599C46.9908 31.6332 46.4622 32.2529 46.0974 32.9688C45.7325 33.6846 45.5415 34.4765 45.54 35.2799L45.78 39.7899C45.8577 40.5981 46.1268 41.3761 46.565 42.0595C47.0032 42.743 47.598 43.3122 48.3 43.7199Z" fill="#1E201C"/>
<path d="M72.4299 49.56L68.4299 47.51C67.6954 47.1885 66.8958 47.0437 66.0952 47.0871C65.2946 47.1305 64.5154 47.361 63.8199 47.76L59.9999 50.22C59.353 50.6955 58.8261 51.3157 58.4615 52.0311C58.0969 52.7464 57.9045 53.5371 57.8999 54.34L58.14 58.85C58.2275 59.6474 58.5011 60.4131 58.9388 61.0853C59.3766 61.7575 59.9661 62.3175 60.6599 62.72L64.6599 64.72C65.3931 65.0453 66.1926 65.1932 66.9937 65.1515C67.7947 65.1098 68.5745 64.8797 69.2699 64.48L73.0599 62.02C73.7071 61.5424 74.2339 60.9204 74.5984 60.2034C74.963 59.4865 75.1553 58.6943 75.1599 57.89L74.9199 53.39C74.8282 52.6029 74.5557 51.8476 74.1238 51.1832C73.6918 50.5188 73.1121 49.9633 72.4299 49.56Z" fill="#1E201C"/>
<path d="M84.77 68.5801L80.77 66.5801C80.0351 66.2546 79.234 66.1068 78.4314 66.1485C77.6288 66.1902 76.8472 66.4202 76.15 66.8201L72.3701 69.2801C71.7219 69.7544 71.1942 70.3744 70.8295 71.09C70.4647 71.8056 70.2731 72.5969 70.27 73.4001L70.5101 77.9101C70.6058 78.6946 70.8812 79.4465 71.3148 80.1072C71.7483 80.768 72.3285 81.3199 73.0101 81.7201L77.0101 83.7201C77.7463 84.0416 78.5475 84.1865 79.3497 84.1431C80.1519 84.0997 80.9328 83.8692 81.6301 83.4701L85.42 81.0101C86.0675 80.5357 86.5941 79.9155 86.9572 79.1997C87.3203 78.4839 87.5097 77.6927 87.5101 76.8901L87.3 72.4601C87.2137 71.6598 86.9396 70.8912 86.4999 70.2169C86.0603 69.5427 85.4675 68.9818 84.77 68.5801Z" fill="#1E201C"/>
<path d="M55.3 57.3799L55.11 53.8699C55.1146 53.067 55.3069 52.2763 55.6716 51.561C56.0362 50.8456 56.563 50.2254 57.21 49.7499L64.58 44.9599C65.2754 44.5609 66.0547 44.3304 66.8553 44.287C67.6559 44.2436 68.4555 44.3885 69.19 44.7099L72.33 46.3099C73.0649 46.6353 73.866 46.7832 74.6686 46.7415C75.4713 46.6998 76.2528 46.4697 76.95 46.0699L80.73 43.5999C81.3787 43.1261 81.9068 42.5063 82.2716 41.7905C82.6364 41.0748 82.8277 40.2833 82.83 39.4799L82.59 34.9799C82.504 34.1808 82.231 33.4131 81.7932 32.7391C81.3554 32.065 80.7651 31.5035 80.07 31.0999L76.07 29.0499C75.3338 28.7284 74.5326 28.5835 73.7303 28.6269C72.9281 28.6703 72.1472 28.9008 71.45 29.2999L67.59 31.7199C66.9425 32.1943 66.4159 32.8145 66.0528 33.5303C65.6897 34.2461 65.5003 35.0373 65.5 35.8399L65.68 39.3499C65.6797 40.1526 65.4902 40.9438 65.1271 41.6596C64.764 42.3754 64.2374 42.9956 63.59 43.4699L56.22 48.2599C55.5228 48.6597 54.7413 48.8898 53.9387 48.9315C53.136 48.9732 52.3349 48.8253 51.6 48.4999L48.47 46.9099C47.7351 46.5845 46.934 46.4367 46.1313 46.4784C45.3287 46.5201 44.5472 46.7501 43.85 47.1499L40.07 49.6099C39.4207 50.0832 38.8922 50.7029 38.5273 51.4188C38.1624 52.1347 37.9715 52.9265 37.97 53.7299L38.21 58.2399C38.2952 59.0393 38.5679 59.8073 39.0057 60.4815C39.4436 61.1557 40.0343 61.717 40.73 62.1199L44.73 64.1199C45.4662 64.4415 46.2674 64.5864 47.0696 64.543C47.8718 64.4996 48.6528 64.2691 49.35 63.8699L53.13 61.4099C53.7796 60.9526 54.3137 60.3504 54.6904 59.6509C55.067 58.9515 55.2757 58.174 55.3 57.3799Z" fill="#1E201C"/>
<path d="M94.8901 54.0001C94.801 53.2018 94.5268 52.4354 94.0893 51.7618C93.6518 51.0882 93.0631 50.526 92.3701 50.1201L88.3701 48.1201C87.6337 47.7993 86.8325 47.6548 86.0305 47.6982C85.2284 47.7416 84.4475 47.9717 83.7501 48.3701L79.97 50.8301C79.3219 51.3045 78.7943 51.9244 78.4295 52.64C78.0648 53.3556 77.8731 54.1469 77.8701 54.9501L78.0601 58.4701C78.057 59.2732 77.8654 60.0645 77.5006 60.7801C77.1359 61.4957 76.6082 62.1157 75.96 62.5901L68.6 67.3701C67.9028 67.7692 67.1219 67.9997 66.3197 68.0431C65.5175 68.0865 64.7163 67.9416 63.98 67.6201L60.84 66.0201C60.1055 65.6986 59.3059 65.5537 58.5053 65.5971C57.7047 65.6406 56.9255 65.871 56.23 66.2701L52.41 68.7201C51.7631 69.1956 51.2363 69.8157 50.8716 70.5311C50.507 71.2464 50.3147 72.0371 50.3101 72.8401L50.55 77.35C50.6376 78.1474 50.9112 78.9131 51.3489 79.5853C51.7867 80.2575 52.3762 80.8175 53.0701 81.2201L57.0701 83.2701C57.8032 83.5954 58.6027 83.7432 59.4037 83.7015C60.2048 83.6598 60.9846 83.4297 61.6801 83.03L65.47 80.57C66.1164 80.094 66.6429 79.4737 67.0074 78.7585C67.372 78.0432 67.5646 77.2528 67.5701 76.4501L67.3801 72.93C67.3823 72.1267 67.5736 71.3352 67.9384 70.6195C68.3032 69.9037 68.8313 69.2839 69.48 68.81L76.84 64.0201C77.5372 63.6203 78.3188 63.3902 79.1214 63.3485C79.924 63.3068 80.7251 63.4546 81.46 63.78L84.59 65.3701C85.3249 65.6955 86.1261 65.8433 86.9287 65.8016C87.7313 65.7599 88.5128 65.5299 89.21 65.1301L93.0001 62.6701C93.6469 62.1951 94.1731 61.5748 94.5361 60.8592C94.8992 60.1435 95.0889 59.3525 95.09 58.5501L94.8901 54.0001Z" fill="#1E201C"/>
<path d="M113.952 74V32.464H130.72C133.92 32.464 136.576 32.9653 138.688 33.968C140.8 34.9493 142.379 36.272 143.424 37.936C144.469 39.6 144.992 41.4453 144.992 43.472C144.992 45.8187 144.331 47.824 143.008 49.488C141.707 51.152 139.872 52.3253 137.504 53.008C139.061 53.328 140.459 53.9147 141.696 54.768C142.933 55.6213 143.904 56.6987 144.608 58C145.333 59.3013 145.696 60.7947 145.696 62.48C145.696 63.8027 145.461 65.136 144.992 66.48C144.544 67.824 143.755 69.072 142.624 70.224C141.515 71.3547 139.989 72.272 138.048 72.976C136.128 73.6587 133.707 74 130.784 74H113.952ZM121.504 67.408H130.592C133.003 67.408 134.763 66.928 135.872 65.968C137.003 64.9867 137.568 63.6747 137.568 62.032C137.568 60.3893 136.992 59.0773 135.84 58.096C134.688 57.0933 132.939 56.592 130.592 56.592H121.504V67.408ZM121.504 38.992V50H130.4C132.64 50 134.336 49.5093 135.488 48.528C136.661 47.5253 137.248 46.16 137.248 44.432C137.248 42.7893 136.672 41.4773 135.52 40.496C134.389 39.4933 132.704 38.992 130.464 38.992H121.504ZM167.036 74.896C164.391 74.896 161.969 74.2133 159.772 72.848C157.575 71.4827 155.815 69.5733 154.492 67.12C153.169 64.6453 152.508 61.7547 152.508 58.448C152.508 55.0347 153.159 52.1013 154.46 49.648C155.783 47.1947 157.543 45.3173 159.74 44.016C161.937 42.7147 164.369 42.064 167.036 42.064C169.511 42.064 171.644 42.5653 173.436 43.568C175.249 44.5493 176.7 45.8933 177.788 47.6C178.897 49.2853 179.644 51.1947 180.028 53.328C180.412 55.4613 180.433 57.6587 180.092 59.92H158.524V55.824H174.748L173.276 56.784C173.34 55.7813 173.287 54.768 173.116 53.744C172.967 52.72 172.668 51.7813 172.22 50.928C171.772 50.0747 171.132 49.392 170.3 48.88C169.489 48.3467 168.444 48.08 167.164 48.08C165.628 48.08 164.327 48.464 163.26 49.232C162.193 50 161.383 51.0453 160.828 52.368C160.273 53.6907 159.996 55.184 159.996 56.848V59.856C159.996 61.6053 160.252 63.152 160.764 64.496C161.297 65.84 162.076 66.896 163.1 67.664C164.145 68.432 165.457 68.816 167.036 68.816C168.508 68.816 169.745 68.4747 170.748 67.792C171.751 67.1093 172.391 66.0853 172.668 64.72H180.284C179.964 66.7253 179.207 68.496 178.012 70.032C176.839 71.5467 175.313 72.7413 173.436 73.616C171.559 74.4693 169.425 74.896 167.036 74.896ZM189.39 74V42.832H196.942V74H189.39ZM195.086 60.368C195.086 56.2933 195.544 52.9227 196.462 50.256C197.379 47.5893 198.606 45.616 200.142 44.336C201.699 43.0347 203.427 42.384 205.326 42.384C205.838 42.384 206.318 42.416 206.766 42.48C207.235 42.544 207.694 42.64 208.142 42.768L208.014 50.32C207.459 50.192 206.862 50.0853 206.222 50C205.582 49.9147 205.006 49.872 204.494 49.872C202.83 49.872 201.432 50.2773 200.302 51.088C199.192 51.8773 198.35 53.0507 197.774 54.608C197.219 56.1653 196.942 58.0853 196.942 60.368H195.086ZM214.515 74V42.832H222.067V74H214.515ZM220.211 60.368C220.211 56.2933 220.669 52.9227 221.587 50.256C222.504 47.5893 223.731 45.616 225.267 44.336C226.824 43.0347 228.552 42.384 230.451 42.384C230.963 42.384 231.443 42.416 231.891 42.48C232.36 42.544 232.819 42.64 233.267 42.768L233.139 50.32C232.584 50.192 231.987 50.0853 231.347 50C230.707 49.9147 230.131 49.872 229.619 49.872C227.955 49.872 226.557 50.2773 225.427 51.088C224.317 51.8773 223.475 53.0507 222.899 54.608C222.344 56.1653 222.067 58.0853 222.067 60.368H220.211ZM234.904 42.96H243.48L251.736 67.408H250.392L257.496 42.96H265.176L253.272 79.632C252.056 83.3013 250.552 85.9573 248.76 87.6C246.989 89.2427 244.824 90.064 242.264 90.064C240.792 90.064 239.352 89.8933 237.944 89.552C236.557 89.232 235.138 88.72 233.688 88.016V81.36C234.861 82.0853 235.992 82.6187 237.08 82.96C238.189 83.3013 239.298 83.472 240.408 83.472C241.41 83.472 242.285 83.1947 243.032 82.64C243.8 82.1067 244.461 81.3493 245.016 80.368C245.57 79.408 246.04 78.288 246.424 77.008L247.384 74L234.904 42.96ZM273.682 74V39.184C273.682 36.944 274.119 35.12 274.994 33.712C275.868 32.304 277.02 31.2693 278.45 30.608C279.9 29.9253 281.468 29.584 283.154 29.584C284.199 29.584 285.276 29.6587 286.386 29.808C287.495 29.9573 288.572 30.1387 289.618 30.352L288.146 36.176C287.612 35.984 287.058 35.8347 286.482 35.728C285.906 35.6 285.351 35.536 284.818 35.536C284.22 35.536 283.655 35.6533 283.122 35.888C282.588 36.1013 282.151 36.4853 281.81 37.04C281.468 37.5947 281.298 38.352 281.298 39.312V74H273.682ZM269.074 47.952V42.96H286.994V47.952H269.074ZM295.41 74V30.096H302.962V74H295.41ZM327.114 74.896C324.276 74.896 321.706 74.288 319.402 73.072C317.119 71.856 315.306 70.0427 313.962 67.632C312.618 65.2 311.946 62.16 311.946 58.512C311.946 54.8 312.618 51.728 313.962 49.296C315.306 46.864 317.119 45.0507 319.402 43.856C321.706 42.6613 324.276 42.064 327.114 42.064C329.908 42.064 332.436 42.6613 334.698 43.856C336.98 45.0507 338.794 46.864 340.138 49.296C341.482 51.728 342.154 54.8 342.154 58.512C342.154 62.16 341.482 65.2 340.138 67.632C338.794 70.0427 336.98 71.856 334.698 73.072C332.436 74.288 329.908 74.896 327.114 74.896ZM326.858 68.304C328.351 68.304 329.674 67.9413 330.826 67.216C331.999 66.4693 332.916 65.3707 333.578 63.92C334.26 62.4693 334.602 60.6667 334.602 58.512C334.602 55.2267 333.951 52.752 332.65 51.088C331.37 49.424 329.61 48.592 327.37 48.592C325.855 48.592 324.511 48.9653 323.338 49.712C322.164 50.4373 321.236 51.536 320.554 53.008C319.892 54.48 319.562 56.3147 319.562 58.512C319.562 61.7547 320.212 64.1973 321.514 65.84C322.836 67.4827 324.618 68.304 326.858 68.304ZM345.956 42.96H353.828L360.548 66.512H359.78L366.116 44.624H372.964L379.3 66.576H378.532L385.252 42.96H392.804L382.564 74H375.14L368.804 53.392H369.956L363.748 74H356.26L345.956 42.96Z" fill="#1E201C"/>
</svg>
