<svg width="1418" height="174" viewBox="0 0 1418 174" fill="none" xmlns="http://www.w3.org/2000/svg">
<path d="M463.7 172.394C450.293 172.394 438.226 169.521 427.501 163.775C416.933 158.028 408.494 150.207 402.185 140.31C396.034 130.413 392.958 119.319 392.958 107.028C392.958 94.5775 396.034 83.4836 402.185 73.7465C408.494 63.8498 416.933 56.0282 427.501 50.2817C438.226 44.5352 450.293 41.662 463.7 41.662C476.949 41.662 489.173 43.8967 500.372 48.3662C511.729 52.6761 520.562 58.662 526.871 66.3239L513.148 85.2394C509.52 81.2488 504.946 77.6573 499.426 74.4648C494.063 71.2723 488.385 68.7183 482.391 66.8028C476.397 64.8873 470.482 63.9296 464.646 63.9296C455.498 63.9296 447.375 65.8451 440.277 69.6761C433.179 73.3474 427.58 78.4554 423.479 85C419.535 91.385 417.564 98.7277 417.564 107.028C417.564 115.329 419.693 122.751 423.952 129.296C428.21 135.681 433.889 140.789 440.987 144.62C448.242 148.291 456.208 150.127 464.883 150.127C471.823 150.127 478.211 149.329 484.047 147.732C489.883 145.977 495.246 143.742 500.135 141.028C505.025 138.155 509.442 135.122 513.385 131.93L526.871 150.366C519.3 156.432 510.151 161.62 499.426 165.93C488.858 170.239 476.949 172.394 463.7 172.394Z" fill="#242424"/>
<path d="M599.472 172.394C586.223 172.394 574.472 169.601 564.22 164.014C554.125 158.268 546.238 150.446 540.56 140.549C534.882 130.653 532.043 119.479 532.043 107.028C532.043 94.2582 535.039 83.0047 541.033 73.2676C547.027 63.3709 555.229 55.6291 565.639 50.0422C576.049 44.4554 587.879 41.662 601.128 41.662C609.33 41.662 616.902 42.6995 623.842 44.7747C630.939 46.8498 637.012 49.6432 642.059 53.1549C647.265 56.6667 651.366 60.4977 654.362 64.6479C657.359 68.7981 659.016 73.0282 659.331 77.338L652.706 76.8592V44.2958H677.312V170H652.706V136.958L657.911 137.676C657.596 141.507 655.782 145.498 652.47 149.648C649.157 153.639 644.82 157.39 639.457 160.901C634.094 164.254 627.943 167.047 621.002 169.282C614.22 171.357 607.043 172.394 599.472 172.394ZM605.387 149.648C614.851 149.648 623.211 147.812 630.466 144.141C637.722 140.31 643.4 135.202 647.501 128.817C651.602 122.272 653.653 115.009 653.653 107.028C653.653 98.8873 651.602 91.6244 647.501 85.2394C643.4 78.8545 637.722 73.8263 630.466 70.1549C623.211 66.4836 614.851 64.6479 605.387 64.6479C595.923 64.6479 587.564 66.4836 580.308 70.1549C573.052 73.8263 567.295 78.8545 563.037 85.2394C558.936 91.6244 556.885 98.8873 556.885 107.028C556.885 115.009 558.936 122.272 563.037 128.817C567.295 135.202 573.052 140.31 580.308 144.141C587.564 147.812 595.923 149.648 605.387 149.648Z" fill="#242424"/>
<path d="M732.06 170V7.66197H756.429V170H732.06ZM697.281 68.2394V44.2958H797.597V68.2394H697.281Z" fill="#242424"/>
<path d="M882.365 172.394C867.38 172.394 853.973 169.681 842.143 164.254C830.471 158.667 821.323 151.085 814.698 141.507C808.074 131.77 804.761 120.756 804.761 108.465C804.761 98.0892 806.733 88.831 810.676 80.6901C814.62 72.5493 819.982 65.6056 826.765 59.8592C833.705 53.9531 841.749 49.4038 850.897 46.2113C860.204 43.0188 869.983 41.4225 880.235 41.4225C889.857 41.4225 898.848 42.939 907.207 45.9718C915.567 49.0047 922.901 53.2347 929.211 58.662C935.52 64.0892 940.409 70.554 943.88 78.0563C947.35 85.3991 949.006 93.5399 948.848 102.479L948.611 114.451H825.818L820.377 94.8169H927.554L924.005 97.4507V91.7042C923.217 86.277 920.693 81.4883 916.434 77.338C912.176 73.1878 906.892 69.9953 900.583 67.7606C894.273 65.3662 887.491 64.169 880.235 64.169C870.298 64.169 861.465 65.6854 853.737 68.7183C846.008 71.5916 839.935 76.1408 835.519 82.3662C831.102 88.5915 828.894 96.7324 828.894 106.789C828.894 115.408 831.339 122.991 836.229 129.535C841.118 135.92 847.822 140.869 856.339 144.38C865.014 147.892 875.03 149.648 886.387 149.648C896.797 149.648 905.63 148.211 912.885 145.338C920.141 142.305 926.529 138.873 932.05 135.042L943.17 153.239C938.753 156.751 933.233 159.944 926.608 162.817C920.141 165.69 913.122 168.005 905.551 169.761C897.98 171.516 890.251 172.394 882.365 172.394Z" fill="#242424"/>
<path d="M975.735 170V44.2958H1000.34V87.8732L994.899 83.3239C997.107 75.662 1000.81 68.7183 1006.02 62.493C1011.38 56.108 1017.45 51.0798 1024.24 47.4085C1031.18 43.5775 1038.35 41.662 1045.77 41.662C1050.5 41.662 1054.99 42.1408 1059.25 43.0986C1063.67 44.0563 1067.22 45.4131 1069.9 47.169L1063.51 73.0282C1060.51 71.4319 1056.97 70.1549 1052.86 69.1972C1048.76 68.2394 1044.9 67.7606 1041.27 67.7606C1035.28 67.7606 1029.76 68.7981 1024.71 70.8732C1019.66 72.9484 1015.33 75.8216 1011.7 79.493C1008.07 83.0047 1005.23 86.9953 1003.18 91.4648C1001.29 95.9343 1000.34 100.484 1000.34 105.113V170H975.735Z" fill="#242424"/>
<path d="M1167.5 172.394C1153.94 172.394 1141.48 170.239 1130.12 165.93C1118.92 161.46 1109.06 155.315 1100.55 147.493C1092.19 139.671 1085.72 130.573 1081.15 120.197C1076.57 109.662 1074.28 98.3286 1074.28 86.1972C1074.28 74.0657 1076.57 62.8122 1081.15 52.4366C1085.72 41.9014 1092.19 32.723 1100.55 24.9014C1109.06 17.0798 1118.92 11.0141 1130.12 6.70422C1141.48 2.23474 1153.94 0 1167.5 0C1181.07 0 1193.45 2.15493 1204.65 6.46479C1216 10.7747 1225.86 16.9202 1234.22 24.9014C1242.74 32.723 1249.29 41.9014 1253.86 52.4366C1258.59 62.8122 1260.96 74.0657 1260.96 86.1972C1260.96 98.3286 1258.59 109.662 1253.86 120.197C1249.29 130.573 1242.74 139.751 1234.22 147.732C1225.86 155.554 1216 161.62 1204.65 165.93C1193.45 170.239 1181.07 172.394 1167.5 172.394ZM1167.5 147.254C1177.44 147.254 1186.43 145.737 1194.47 142.704C1202.68 139.512 1209.77 135.202 1215.77 129.775C1221.92 124.188 1226.65 117.723 1229.96 110.38C1233.28 102.878 1234.93 94.8169 1234.93 86.1972C1234.93 77.5775 1233.28 69.5962 1229.96 62.2535C1226.65 54.7512 1221.92 48.2864 1215.77 42.8592C1209.77 37.2723 1202.68 32.9624 1194.47 29.9296C1186.43 26.7371 1177.44 25.1408 1167.5 25.1408C1157.72 25.1408 1148.73 26.7371 1140.53 29.9296C1132.33 32.9624 1125.15 37.1925 1119 42.6197C1113.01 48.047 1108.35 54.5117 1105.04 62.0141C1101.89 69.3568 1100.31 77.4178 1100.31 86.1972C1100.31 94.8169 1101.89 102.878 1105.04 110.38C1108.35 117.883 1113.01 124.347 1119 129.775C1125.15 135.202 1132.33 139.512 1140.53 142.704C1148.73 145.737 1157.72 147.254 1167.5 147.254Z" fill="#242424"/>
<path d="M1345.73 172.394C1334.85 172.394 1324.83 171.197 1315.68 168.803C1306.54 166.408 1298.18 162.817 1290.6 158.028C1283.19 153.239 1276.41 147.174 1270.26 139.831L1286.82 118.761C1296.13 129.615 1305.43 137.437 1314.74 142.225C1324.2 146.854 1334.93 149.169 1346.91 149.169C1354.33 149.169 1361.27 148.211 1367.73 146.296C1374.36 144.221 1379.72 141.347 1383.82 137.676C1388.08 133.845 1390.21 129.136 1390.21 123.549C1390.21 119.878 1389.19 116.765 1387.14 114.211C1385.09 111.657 1382.32 109.502 1378.85 107.746C1375.38 105.991 1371.44 104.554 1367.02 103.437C1362.77 102.16 1358.35 101.122 1353.78 100.324C1349.36 99.5258 1345.18 98.8075 1341.24 98.169C1331.46 96.7324 1322.62 94.7371 1314.74 92.1831C1307.01 89.4695 1300.46 86.1174 1295.1 82.1268C1289.74 78.1362 1285.64 73.3474 1282.8 67.7606C1279.96 62.1737 1278.54 55.7887 1278.54 48.6056C1278.54 41.2629 1280.19 34.5587 1283.51 28.493C1286.98 22.4272 1291.79 17.3193 1297.94 13.169C1304.09 8.85915 1311.27 5.58685 1319.47 3.35211C1327.67 1.11737 1336.58 0 1346.2 0C1356.3 0 1365.53 1.11737 1373.89 3.35211C1382.4 5.58685 1389.9 8.93897 1396.36 13.4084C1402.99 17.7183 1408.51 23.0657 1412.92 29.4507L1395.42 48.1268C1391.47 42.6995 1386.9 38.1502 1381.69 34.4789C1376.65 30.8075 1371.05 28.0141 1364.9 26.0986C1358.74 24.1831 1352.28 23.2254 1345.49 23.2254C1337.77 23.2254 1330.9 24.1831 1324.91 26.0986C1318.92 28.0141 1314.19 30.7277 1310.72 34.2394C1307.25 37.5916 1305.51 41.662 1305.51 46.4507C1305.51 50.4413 1306.54 53.9531 1308.59 56.9859C1310.64 59.8592 1313.55 62.3333 1317.34 64.4085C1321.13 66.4836 1325.78 68.2394 1331.3 69.6761C1336.82 71.1127 1343.13 72.3099 1350.23 73.2676C1359.38 74.7042 1367.97 76.5399 1376.02 78.7747C1384.22 80.8498 1391.39 83.6432 1397.55 87.1549C1403.7 90.507 1408.51 94.8169 1411.98 100.085C1415.45 105.192 1417.18 111.498 1417.18 119C1417.18 129.854 1414.27 139.272 1408.43 147.254C1402.59 155.235 1394.31 161.46 1383.59 165.93C1372.86 170.239 1360.24 172.394 1345.73 172.394Z" fill="#242424"/>
<path d="M68.0736 33.4269V62.713H34.0368H0L0.796182 97.4523C1.39332 130.576 1.79141 133 6.76755 142.694C12.938 154.611 21.2979 162.488 34.2358 168.547C42.9938 172.586 46.3776 172.788 156.251 173.394L269.11 174V144.512V115.226H303.146H337.183L336.586 81.2945C335.79 48.1709 335.591 46.9591 329.818 35.4466C326.037 27.9736 320.662 20.9046 315.288 16.8651C298.966 4.14084 297.772 4.14084 177.151 4.14084H68.0736V33.4269ZM267.119 88.9694V115.226H168.592H70.064V88.9694V62.713H168.592H267.119V88.9694Z" fill="url(#paint0_linear_2004_9)"/>
<defs>
<linearGradient id="paint0_linear_2004_9" x1="-7.73349e-06" y1="-136.23" x2="172.396" y2="171.871" gradientUnits="userSpaceOnUse">
<stop stop-color="#8DA10F"/>
<stop offset="1" stop-color="#2BAA00"/>
</linearGradient>
</defs>
</svg>
