<svg width="387" height="89" viewBox="0 0 387 89" fill="none" xmlns="http://www.w3.org/2000/svg">
<path d="M108.597 71.0502C104.683 71.0502 101.159 70.2212 98.0277 68.5632C94.942 66.9052 92.4781 64.6485 90.6359 61.7931C88.8398 58.9377 87.9417 55.7369 87.9417 52.1907C87.9417 48.5984 88.8398 45.3976 90.6359 42.5883C92.4781 39.7329 94.942 37.4762 98.0277 35.8182C101.159 34.1602 104.683 33.3312 108.597 33.3312C112.466 33.3312 116.035 33.976 119.305 35.2655C122.621 36.509 125.2 38.2361 127.042 40.4467L123.035 45.9042C121.976 44.7528 120.641 43.7166 119.029 42.7955C117.463 41.8744 115.805 41.1375 114.055 40.5849C112.305 40.0322 110.578 39.7559 108.874 39.7559C106.202 39.7559 103.831 40.3085 101.758 41.4139C99.6857 42.4731 98.0507 43.9469 96.8533 45.8351C95.7019 47.6773 95.1262 49.7958 95.1262 52.1907C95.1262 54.5856 95.748 56.7271 96.9915 58.6154C98.235 60.4576 99.8929 61.9313 101.965 63.0366C104.084 64.0959 106.41 64.6255 108.943 64.6255C110.969 64.6255 112.834 64.3952 114.538 63.9347C116.242 63.4281 117.808 62.7833 119.236 62.0004C120.664 61.1714 121.953 60.2964 123.105 59.3753L127.042 64.6946C124.832 66.4447 122.16 67.9415 119.029 69.1849C115.943 70.4284 112.466 71.0502 108.597 71.0502Z" fill="#242424"/>
<path d="M148.241 71.0502C144.372 71.0502 140.941 70.2442 137.948 68.6323C135 66.9743 132.697 64.7176 131.039 61.8622C129.381 59.0068 128.552 55.783 128.552 52.1907C128.552 48.5063 129.427 45.2594 131.177 42.4501C132.928 39.5947 135.322 37.361 138.362 35.7491C141.402 34.1372 144.856 33.3312 148.724 33.3312C151.119 33.3312 153.33 33.6306 155.356 34.2293C157.429 34.828 159.202 35.634 160.676 36.6472C162.195 37.6604 163.393 38.7657 164.268 39.9631C165.143 41.1606 165.627 42.381 165.719 43.6245L163.784 43.4863V34.0911H170.969V70.3593H163.784V60.826L165.304 61.0332C165.212 62.1386 164.682 63.2899 163.715 64.4874C162.748 65.6387 161.482 66.721 159.916 67.7342C158.35 68.7014 156.554 69.5073 154.527 70.1521C152.547 70.7508 150.451 71.0502 148.241 71.0502ZM149.968 64.4874C152.731 64.4874 155.172 63.9577 157.291 62.8985C159.409 61.7931 161.067 60.3194 162.265 58.4772C163.462 56.5889 164.061 54.4934 164.061 52.1907C164.061 49.8419 163.462 47.7464 162.265 45.9042C161.067 44.062 159.409 42.6113 157.291 41.552C155.172 40.4928 152.731 39.9631 149.968 39.9631C147.205 39.9631 144.764 40.4928 142.645 41.552C140.527 42.6113 138.846 44.062 137.602 45.9042C136.405 47.7464 135.806 49.8419 135.806 52.1907C135.806 54.4934 136.405 56.5889 137.602 58.4772C138.846 60.3194 140.527 61.7931 142.645 62.8985C144.764 63.9577 147.205 64.4874 149.968 64.4874Z" fill="#242424"/>
<path d="M186.954 70.3593V23.5215H194.07V70.3593H186.954ZM176.799 40.9994V34.0911H206.09V40.9994H176.799Z" fill="#242424"/>
<path d="M230.841 71.0502C226.466 71.0502 222.551 70.2672 219.097 68.7014C215.689 67.0895 213.018 64.9018 211.084 62.1386C209.149 59.3292 208.182 56.1514 208.182 52.6052C208.182 49.6116 208.758 46.9404 209.909 44.5916C211.061 42.2428 212.626 40.2395 214.607 38.5815C216.633 36.8775 218.982 35.5649 221.653 34.6438C224.37 33.7227 227.226 33.2622 230.219 33.2622C233.029 33.2622 235.654 33.6997 238.095 34.5747C240.536 35.4498 242.677 36.6702 244.519 38.2361C246.362 39.8019 247.789 41.6672 248.803 43.8317C249.816 45.9503 250.299 48.2991 250.253 50.8781L250.184 54.3323H214.33L212.742 48.6675H244.036L243 49.4274V47.7694C242.769 46.2036 242.032 44.8219 240.789 43.6245C239.545 42.4271 238.003 41.506 236.16 40.8612C234.318 40.1704 232.338 39.825 230.219 39.825C227.318 39.825 224.739 40.2625 222.482 41.1375C220.225 41.9665 218.452 43.2791 217.163 45.0752C215.873 46.8714 215.229 49.2202 215.229 52.1216C215.229 54.6086 215.942 56.7962 217.37 58.6844C218.798 60.5266 220.755 61.9543 223.242 62.9675C225.775 63.9807 228.7 64.4874 232.016 64.4874C235.055 64.4874 237.634 64.0729 239.753 63.2439C241.871 62.3688 243.736 61.3786 245.348 60.2733L248.595 65.5236C247.306 66.5368 245.694 67.4579 243.76 68.2869C241.871 69.1159 239.822 69.7837 237.611 70.2903C235.401 70.7969 233.144 71.0502 230.841 71.0502Z" fill="#242424"/>
<path d="M258.104 70.3593V34.0911H265.288V46.6641L263.699 45.3516C264.344 43.1409 265.427 41.1375 266.946 39.3414C268.512 37.4992 270.285 36.0485 272.266 34.9892C274.292 33.8839 276.388 33.3312 278.552 33.3312C279.934 33.3312 281.246 33.4694 282.49 33.7457C283.779 34.0221 284.816 34.4135 285.599 34.9201L283.733 42.381C282.858 41.9205 281.822 41.552 280.625 41.2757C279.427 40.9994 278.299 40.8612 277.24 40.8612C275.49 40.8612 273.878 41.1606 272.404 41.7593C270.93 42.358 269.664 43.187 268.604 44.2462C267.545 45.2594 266.716 46.4108 266.117 47.7004C265.565 48.9899 265.288 50.3025 265.288 51.638V70.3593H258.104Z" fill="#242424"/>
<path d="M314.097 71.0502C310.136 71.0502 306.498 70.4284 303.182 69.1849C299.912 67.8954 297.034 66.1223 294.547 63.8656C292.106 61.6089 290.218 58.9838 288.882 55.9902C287.547 52.9506 286.879 49.6807 286.879 46.1805C286.879 42.6804 287.547 39.4335 288.882 36.4399C290.218 33.4003 292.106 30.7522 294.547 28.4955C297.034 26.2388 299.912 24.4887 303.182 23.2452C306.498 21.9557 310.136 21.3109 314.097 21.3109C318.058 21.3109 321.673 21.9327 324.943 23.1761C328.259 24.4196 331.137 26.1927 333.578 28.4955C336.065 30.7522 337.977 33.4003 339.312 36.4399C340.694 39.4335 341.385 42.6804 341.385 46.1805C341.385 49.6807 340.694 52.9506 339.312 55.9902C337.977 58.9838 336.065 61.632 333.578 63.9347C331.137 66.1914 328.259 67.9415 324.943 69.1849C321.673 70.4284 318.058 71.0502 314.097 71.0502ZM314.097 63.7965C316.999 63.7965 319.624 63.359 321.973 62.484C324.367 61.5629 326.44 60.3194 328.19 58.7535C329.986 57.1416 331.368 55.2764 332.335 53.1579C333.302 50.9933 333.786 48.6675 333.786 46.1805C333.786 43.6936 333.302 41.3908 332.335 39.2723C331.368 37.1077 329.986 35.2425 328.19 33.6766C326.44 32.0647 324.367 30.8212 321.973 29.9462C319.624 29.0251 316.999 28.5646 314.097 28.5646C311.242 28.5646 308.617 29.0251 306.222 29.9462C303.827 30.8212 301.731 32.0417 299.935 33.6076C298.185 35.1734 296.827 37.0387 295.859 39.2032C294.938 41.3218 294.478 43.6475 294.478 46.1805C294.478 48.6675 294.938 50.9933 295.859 53.1579C296.827 55.3224 298.185 57.1877 299.935 58.7535C301.731 60.3194 303.827 61.5629 306.222 62.484C308.617 63.359 311.242 63.7965 314.097 63.7965Z" fill="#242424"/>
<path d="M366.137 71.0502C362.959 71.0502 360.035 70.7048 357.364 70.0139C354.693 69.3231 352.252 68.2869 350.041 66.9052C347.876 65.5236 345.896 63.7735 344.1 61.655L348.936 55.5757C351.653 58.7075 354.37 60.9642 357.087 62.3458C359.851 63.6814 362.982 64.3492 366.483 64.3492C368.647 64.3492 370.674 64.0729 372.562 63.5202C374.496 62.9215 376.062 62.0925 377.259 61.0332C378.503 59.9279 379.125 58.5693 379.125 56.9574C379.125 55.8981 378.825 55 378.227 54.2632C377.628 53.5263 376.822 52.9046 375.809 52.3979C374.796 51.8913 373.644 51.4769 372.355 51.1545C371.111 50.786 369.822 50.4867 368.486 50.2564C367.196 50.0261 365.976 49.8189 364.825 49.6347C361.969 49.2202 359.39 48.6445 357.087 47.9076C354.831 47.1247 352.919 46.1575 351.354 45.0061C349.788 43.8548 348.59 42.4731 347.761 40.8612C346.932 39.2493 346.518 37.4071 346.518 35.3346C346.518 33.2161 347.001 31.2818 347.969 29.5317C348.982 27.7816 350.386 26.3079 352.183 25.1104C353.979 23.867 356.074 22.9228 358.469 22.2781C360.864 21.6333 363.466 21.3109 366.275 21.3109C369.223 21.3109 371.917 21.6333 374.358 22.2781C376.845 22.9228 379.033 23.89 380.921 25.1795C382.855 26.423 384.467 27.9658 385.757 29.808L380.644 35.1965C379.493 33.6306 378.158 32.318 376.638 31.2588C375.164 30.1995 373.529 29.3935 371.733 28.8409C369.937 28.2882 368.048 28.0119 366.068 28.0119C363.811 28.0119 361.808 28.2882 360.058 28.8409C358.308 29.3935 356.926 30.1765 355.913 31.1897C354.9 32.1568 354.393 33.3312 354.393 34.7129C354.393 35.8643 354.693 36.8775 355.291 37.7525C355.89 38.5815 356.742 39.2953 357.847 39.8941C358.953 40.4928 360.311 40.9994 361.923 41.4139C363.535 41.8284 365.377 42.1738 367.45 42.4501C370.121 42.8646 372.631 43.3942 374.98 44.039C377.375 44.6377 379.47 45.4437 381.266 46.4569C383.062 47.424 384.467 48.6675 385.48 50.1873C386.493 51.6611 387 53.4802 387 55.6448C387 58.7765 386.148 61.4938 384.444 63.7965C382.74 66.0993 380.322 67.8954 377.19 69.1849C374.059 70.4284 370.374 71.0502 366.137 71.0502Z" fill="#242424"/>
<path fill-rule="evenodd" clip-rule="evenodd" d="M72.3214 38.6003C74.8619 42.1643 75.3067 46.7917 73.6416 50.8395C67.7024 65.2778 57.6757 77.6033 45.0021 86.3754C41.095 89.0797 36.0162 89.4799 31.8239 87.2431C12.8875 77.14 0 57.1882 0 34.2263C0 31.0537 0.246028 27.9386 0.720045 24.899C1.49532 19.9275 5.22202 15.9409 10.1305 14.8348C14.3956 13.8737 18.8327 13.3665 23.3882 13.3665C43.5743 13.3665 61.4341 23.3265 72.3214 38.6003Z" fill="#2BAA00" fill-opacity="0.7"/>
<path fill-rule="evenodd" clip-rule="evenodd" d="M25.5415 39.419C22.881 35.9436 22.4378 31.2809 24.2065 27.2773C28.6019 17.328 35.547 8.75745 44.2135 2.39383C48.0436 -0.418484 53.1657 -0.827618 57.2712 1.56469C71.0115 9.57129 80.2463 24.4638 80.2463 41.5133C80.2463 43.3229 80.1422 45.1083 79.9398 46.8637C79.3634 51.8621 75.5953 55.8936 70.6464 56.802C67.9241 57.3017 65.1182 57.5628 62.2515 57.5628C47.2875 57.5628 33.9851 50.4491 25.5415 39.419Z" fill="#BCD908" fill-opacity="0.7"/>
</svg>
