<svg width="472" height="109" viewBox="0 0 472 109" fill="none" xmlns="http://www.w3.org/2000/svg">
<path d="M132.199 86.8629C127.434 86.8629 123.145 85.8537 119.333 83.8354C115.576 81.8171 112.577 79.0699 110.334 75.5939C108.148 72.118 107.055 68.2215 107.055 63.9045C107.055 59.5315 108.148 55.635 110.334 52.2151C112.577 48.7391 115.576 45.992 119.333 43.9737C123.145 41.9554 127.434 40.9462 132.199 40.9462C136.909 40.9462 141.254 41.7311 145.234 43.3009C149.271 44.8146 152.411 46.917 154.653 49.6081L149.776 56.2518C148.486 54.8501 146.86 53.5887 144.898 52.4674C142.992 51.3461 140.974 50.4491 138.843 49.7763C136.713 49.1036 134.61 48.7672 132.536 48.7672C129.284 48.7672 126.397 49.4399 123.874 50.7855C121.351 52.075 119.361 53.869 117.903 56.1677C116.501 58.4102 115.801 60.9892 115.801 63.9045C115.801 66.8199 116.558 69.4269 118.071 71.7255C119.585 73.9681 121.603 75.7621 124.126 77.1077C126.705 78.3972 129.536 79.0419 132.62 79.0419C135.087 79.0419 137.357 78.7616 139.432 78.2009C141.506 77.5842 143.412 76.7993 145.15 75.8462C146.888 74.8371 148.458 73.7718 149.86 72.6506L154.653 79.126C151.962 81.2564 148.71 83.0785 144.898 84.5923C141.142 86.106 136.909 86.8629 132.199 86.8629Z" fill="white"/>
<path d="M180.459 86.8629C175.75 86.8629 171.573 85.8817 167.929 83.9195C164.341 81.9012 161.537 79.154 159.519 75.678C157.501 72.202 156.492 68.2775 156.492 63.9045C156.492 59.4194 157.557 55.4669 159.687 52.0469C161.818 48.5709 164.733 45.8518 168.433 43.8896C172.133 41.9273 176.338 40.9462 181.048 40.9462C183.963 40.9462 186.654 41.3106 189.121 42.0395C191.644 42.7683 193.802 43.7494 195.596 44.9828C197.446 46.2162 198.904 47.5618 199.969 49.0195C201.035 50.4771 201.623 51.9628 201.735 53.4766L199.381 53.3084V41.8713H208.127V86.0219H199.381V74.4166L201.231 74.6689C201.119 76.0144 200.474 77.416 199.297 78.8737C198.119 80.2753 196.577 81.5928 194.671 82.8262C192.765 84.0036 190.579 84.9847 188.112 85.7696C185.701 86.4984 183.15 86.8629 180.459 86.8629ZM182.561 78.8737C185.925 78.8737 188.897 78.229 191.476 76.9395C194.055 75.5939 196.073 73.7999 197.531 71.5573C198.988 69.2587 199.717 66.7077 199.717 63.9045C199.717 61.0453 198.988 58.4943 197.531 56.2518C196.073 54.0092 194.055 52.2432 191.476 50.9537C188.897 49.6642 185.925 49.0195 182.561 49.0195C179.198 49.0195 176.226 49.6642 173.647 50.9537C171.068 52.2432 169.022 54.0092 167.508 56.2518C166.05 58.4943 165.322 61.0453 165.322 63.9045C165.322 66.7077 166.05 69.2587 167.508 71.5573C169.022 73.7999 171.068 75.5939 173.647 76.9395C176.226 78.229 179.198 78.8737 182.561 78.8737Z" fill="white"/>
<path d="M227.587 86.0219V29.0045H236.248V86.0219H227.587ZM215.224 50.2809V41.8713H250.881V50.2809H215.224Z" fill="white"/>
<path d="M281.011 86.8629C275.685 86.8629 270.92 85.9098 266.715 84.0036C262.566 82.0413 259.315 79.3783 256.96 76.0144C254.605 72.5945 253.428 68.7261 253.428 64.4091C253.428 60.7649 254.129 57.5132 255.53 54.6539C256.932 51.7946 258.838 49.3558 261.249 47.3375C263.716 45.2632 266.575 43.6653 269.827 42.544C273.134 41.4227 276.61 40.8621 280.255 40.8621C283.674 40.8621 286.87 41.3947 289.842 42.4599C292.813 43.5252 295.42 45.0109 297.663 46.917C299.905 48.8232 301.643 51.0938 302.876 53.7289C304.11 56.3078 304.699 59.1671 304.643 62.3067L304.558 66.5115H260.912L258.978 59.6156H297.074L295.812 60.5407V58.5224C295.532 56.6162 294.635 54.9342 293.121 53.4766C291.608 52.0189 289.729 50.8976 287.487 50.1127C285.244 49.2717 282.834 48.8513 280.255 48.8513C276.723 48.8513 273.583 49.3839 270.836 50.4491C268.089 51.4583 265.93 53.0561 264.36 55.2426C262.791 57.4291 262.006 60.2884 262.006 63.8204C262.006 66.8479 262.875 69.511 264.613 71.8096C266.351 74.0522 268.733 75.7902 271.761 77.0236C274.844 78.257 278.404 78.8737 282.441 78.8737C286.141 78.8737 289.281 78.3691 291.86 77.36C294.439 76.2947 296.709 75.0894 298.672 73.7438L302.624 80.1351C301.054 81.3686 299.092 82.4898 296.737 83.499C294.439 84.5082 291.944 85.3211 289.253 85.9378C286.562 86.5545 283.815 86.8629 281.011 86.8629Z" fill="white"/>
<path d="M314.199 86.0219V41.8713H322.945V57.1768L321.011 55.579C321.796 52.8879 323.114 50.4491 324.964 48.2626C326.87 46.02 329.028 44.254 331.439 42.9645C333.906 41.619 336.457 40.9462 339.092 40.9462C340.774 40.9462 342.372 41.1144 343.885 41.4508C345.455 41.7872 346.717 42.2637 347.67 42.8804L345.399 51.9628C344.334 51.4022 343.072 50.9537 341.615 50.6173C340.157 50.2809 338.784 50.1127 337.494 50.1127C335.364 50.1127 333.401 50.4771 331.607 51.206C329.813 51.9348 328.271 52.944 326.982 54.2334C325.692 55.4669 324.683 56.8685 323.954 58.4383C323.282 60.0081 322.945 61.6059 322.945 63.2318V86.0219H314.199Z" fill="white"/>
<path d="M382.362 86.8629C377.541 86.8629 373.111 86.106 369.075 84.5923C365.094 83.0225 361.59 80.864 358.563 78.1168C355.591 75.3697 353.293 72.174 351.667 68.5298C350.041 64.8296 349.228 60.849 349.228 56.5881C349.228 52.3273 350.041 48.3747 351.667 44.7305C353.293 41.0303 355.591 37.8066 358.563 35.0594C361.59 32.3123 365.094 30.1819 369.075 28.6681C373.111 27.0983 377.541 26.3134 382.362 26.3134C387.184 26.3134 391.585 27.0703 395.565 28.584C399.602 30.0978 403.106 32.2562 406.077 35.0594C409.105 37.8066 411.431 41.0303 413.057 44.7305C414.739 48.3747 415.58 52.3273 415.58 56.5881C415.58 60.849 414.739 64.8296 413.057 68.5298C411.431 72.174 409.105 75.3977 406.077 78.2009C403.106 80.9481 399.602 83.0785 395.565 84.5923C391.585 86.106 387.184 86.8629 382.362 86.8629ZM382.362 78.0327C385.894 78.0327 389.09 77.5001 391.949 76.4349C394.864 75.3136 397.387 73.7999 399.518 71.8937C401.704 69.9314 403.386 67.6608 404.564 65.0819C405.741 62.4469 406.33 59.6156 406.33 56.5881C406.33 53.5607 405.741 50.7575 404.564 48.1785C403.386 45.5435 401.704 43.2729 399.518 41.3667C397.387 39.4044 394.864 37.8907 391.949 36.8255C389.09 35.7042 385.894 35.1435 382.362 35.1435C378.886 35.1435 375.69 35.7042 372.775 36.8255C369.86 37.8907 367.309 39.3764 365.122 41.2826C362.992 43.1888 361.338 45.4594 360.161 48.0944C359.039 50.6734 358.479 53.5046 358.479 56.5881C358.479 59.6156 359.039 62.4469 360.161 65.0819C361.338 67.7169 362.992 69.9875 365.122 71.8937C367.309 73.7999 369.86 75.3136 372.775 76.4349C375.69 77.5001 378.886 78.0327 382.362 78.0327Z" fill="white"/>
<path d="M445.712 86.8629C441.844 86.8629 438.284 86.4424 435.032 85.6014C431.78 84.7605 428.809 83.499 426.118 81.8171C423.483 80.1351 421.072 78.0047 418.886 75.4257L424.772 68.0253C428.08 71.8376 431.388 74.5848 434.696 76.2667C438.06 77.8926 441.872 78.7055 446.133 78.7055C448.768 78.7055 451.235 78.3691 453.533 77.6963C455.888 76.9675 457.794 75.9584 459.252 74.6689C460.766 73.3233 461.522 71.6694 461.522 69.7072C461.522 68.4177 461.158 67.3245 460.429 66.4274C459.7 65.5304 458.719 64.7735 457.486 64.1568C456.252 63.5401 454.851 63.0355 453.281 62.6431C451.767 62.1946 450.198 61.8302 448.572 61.5498C447.002 61.2695 445.516 61.0172 444.115 60.793C440.639 60.2884 437.499 59.5876 434.696 58.6906C431.949 57.7375 429.622 56.5601 427.716 55.1585C425.81 53.7569 424.352 52.075 423.343 50.1127C422.334 48.1505 421.829 45.9079 421.829 43.385C421.829 40.806 422.418 38.4513 423.595 36.3209C424.828 34.1905 426.538 32.3964 428.725 30.9387C430.911 29.425 433.462 28.2757 436.378 27.4908C439.293 26.7059 442.461 26.3134 445.881 26.3134C449.469 26.3134 452.748 26.7059 455.72 27.4908C458.747 28.2757 461.41 29.453 463.709 31.0228C466.064 32.5366 468.026 34.4147 469.596 36.6573L463.373 43.2168C461.971 41.3106 460.345 39.7128 458.495 38.4233C456.701 37.1338 454.711 36.1527 452.524 35.4799C450.338 34.8072 448.039 34.4708 445.628 34.4708C442.881 34.4708 440.442 34.8072 438.312 35.4799C436.181 36.1527 434.499 37.1058 433.266 38.3392C432.033 39.5166 431.416 40.9462 431.416 42.6281C431.416 44.0297 431.78 45.2632 432.509 46.3284C433.238 47.3375 434.275 48.2065 435.621 48.9354C436.966 49.6642 438.62 50.2809 440.582 50.7855C442.545 51.2901 444.787 51.7105 447.31 52.0469C450.562 52.5515 453.617 53.1962 456.477 53.9811C459.392 54.71 461.943 55.6911 464.129 56.9245C466.316 58.1019 468.026 59.6156 469.259 61.4657C470.493 63.2598 471.109 65.4743 471.109 68.1094C471.109 71.9217 470.072 75.2295 467.998 78.0327C465.924 80.8359 462.98 83.0225 459.168 84.5923C455.355 86.106 450.87 86.8629 445.712 86.8629Z" fill="white"/>
<path fill-rule="evenodd" clip-rule="evenodd" d="M88.8918 48.5821C91.3594 52.1971 91.8056 56.8044 90.2029 60.8773C82.8503 79.5618 69.9078 95.4343 53.435 106.435C49.4834 109.074 44.4283 109.469 40.187 107.326C16.3473 95.2841 0 70.569 0 42.0358C0 37.5754 0.399473 33.2083 1.16459 28.9684C2.05813 24.0168 5.76195 20.055 10.6426 18.8319C16.349 17.4017 22.3215 16.6423 28.4713 16.6423C53.5789 16.6423 75.7301 29.2999 88.8918 48.5821Z" fill="#2BAA00" fill-opacity="0.7"/>
<path fill-rule="evenodd" clip-rule="evenodd" d="M30.2029 47.1625C27.635 43.618 27.1907 38.9832 28.8792 34.9451C34.3999 21.7429 43.578 10.4506 55.1469 2.33461C59.0369 -0.394287 64.1252 -0.796524 68.2985 1.47565C85.8057 11.0077 97.6868 29.5697 97.6868 50.9065C97.6868 53.7041 97.4825 56.4539 97.0882 59.1419C96.3578 64.1201 92.6219 68.1165 87.7036 69.1781C83.8609 70.0075 79.872 70.4442 75.7811 70.4442C57.0303 70.4442 40.4225 61.2686 30.2029 47.1625Z" fill="#BCD908" fill-opacity="0.7"/>
</svg>
