<svg width="1190" height="300" viewBox="0 0 1190 300" fill="none" xmlns="http://www.w3.org/2000/svg">
<path d="M524.025 265.2V183.6C524.025 179.653 523.811 174.64 523.385 168.56C522.959 162.373 521.626 156.187 519.387 150C517.148 143.813 513.47 138.64 508.352 134.48C503.341 130.32 496.198 128.24 486.922 128.24C483.19 128.24 479.192 128.827 474.928 130C470.663 131.173 466.665 133.467 462.933 136.88C459.202 140.187 456.11 145.093 453.658 151.6C451.312 158.107 450.139 166.747 450.139 177.52L425.191 165.68C425.191 152.027 427.963 139.227 433.507 127.28C439.051 115.333 447.367 105.68 458.455 98.32C469.65 90.96 483.724 87.28 500.676 87.28C514.216 87.28 525.251 89.5733 533.78 94.16C542.309 98.7467 548.92 104.56 553.611 111.6C558.409 118.64 561.82 126 563.846 133.68C565.872 141.253 567.098 148.187 567.524 154.48C567.951 160.773 568.164 165.36 568.164 168.24V265.2H524.025ZM406 265.2V92.4H444.702V149.68H450.139V265.2H406Z" fill="#1B1D44"/>
<path d="M680.424 270C662.725 270 647.106 266.213 633.566 258.64C620.132 250.96 609.577 240.453 601.901 227.12C594.331 213.68 590.546 198.32 590.546 181.04C590.546 162.16 594.278 145.733 601.741 131.76C609.204 117.787 619.492 106.96 632.606 99.28C645.72 91.4933 660.806 87.6 677.865 87.6C695.99 87.6 711.396 91.8667 724.083 100.4C736.771 108.933 746.153 120.933 752.23 136.4C758.307 151.867 760.44 170.053 758.627 190.96H715.607V174.96C715.607 157.36 712.782 144.72 707.131 137.04C701.587 129.253 692.472 125.36 679.784 125.36C664.964 125.36 654.036 129.893 647 138.96C640.069 147.92 636.604 161.2 636.604 178.8C636.604 194.907 640.069 207.387 647 216.24C654.036 224.987 664.325 229.36 677.865 229.36C686.394 229.36 693.698 227.493 699.775 223.76C705.852 220.027 710.49 214.64 713.688 207.6L757.188 220.08C750.684 235.867 740.396 248.133 726.322 256.88C712.356 265.627 697.056 270 680.424 270ZM623.171 190.96V158.64H737.677V190.96H623.171Z" fill="#1B1D44"/>
<path d="M791.539 265.2V30H835.039V265.2H791.539Z" fill="#1B1D44"/>
<path d="M944.075 270C922.325 270 904.734 265.093 891.3 255.28C877.973 245.36 869.87 231.387 866.991 213.36L911.451 206.64C913.263 214.747 917.261 221.093 923.445 225.68C929.735 230.267 937.678 232.56 947.274 232.56C955.163 232.56 961.241 231.067 965.505 228.08C969.77 224.987 971.902 220.72 971.902 215.28C971.902 211.867 971.049 209.147 969.343 207.12C967.638 204.987 963.799 202.907 957.829 200.88C951.965 198.853 942.796 196.187 930.322 192.88C916.248 189.253 905 185.2 896.578 180.72C888.155 176.24 882.078 170.907 878.346 164.72C874.614 158.427 872.749 150.853 872.749 142C872.749 130.907 875.574 121.307 881.225 113.2C886.875 104.987 894.818 98.6933 905.054 94.32C915.395 89.84 927.55 87.6 941.516 87.6C955.057 87.6 967.051 89.68 977.5 93.84C987.948 98 996.371 103.92 1002.77 111.6C1009.27 119.28 1013.27 128.347 1014.76 138.8L970.303 146.8C969.557 140.4 966.785 135.333 961.987 131.6C957.189 127.867 950.685 125.68 942.476 125.04C934.48 124.507 928.029 125.573 923.125 128.24C918.327 130.907 915.928 134.747 915.928 139.76C915.928 142.747 916.941 145.253 918.967 147.28C921.099 149.307 925.417 151.387 931.921 153.52C938.531 155.653 948.553 158.427 961.987 161.84C975.101 165.253 985.602 169.253 993.492 173.84C1001.49 178.32 1007.3 183.76 1010.92 190.16C1014.55 196.453 1016.36 204.08 1016.36 213.04C1016.36 230.747 1009.96 244.667 997.17 254.8C984.376 264.933 966.678 270 944.075 270Z" fill="#1B1D44"/>
<path d="M1093.09 270C1080.72 270 1070.22 267.653 1061.58 262.96C1053.05 258.16 1046.55 251.813 1042.07 243.92C1037.7 235.92 1035.51 227.12 1035.51 217.52C1035.51 209.52 1036.74 202.213 1039.19 195.6C1041.64 188.987 1045.59 183.173 1051.03 178.16C1056.57 173.04 1063.98 168.773 1073.25 165.36C1079.65 163.013 1087.27 160.933 1096.12 159.12C1104.97 157.307 1115 155.6 1126.19 154C1137.38 152.293 1149.7 150.427 1163.13 148.4L1147.46 157.04C1147.46 146.8 1145.01 139.28 1140.1 134.48C1135.2 129.68 1126.99 127.28 1115.47 127.28C1109.08 127.28 1102.41 128.827 1095.48 131.92C1088.55 135.013 1083.7 140.507 1080.93 148.4L1041.59 135.92C1045.96 121.627 1054.17 110 1066.22 101.04C1078.27 92.08 1094.68 87.6 1115.47 87.6C1130.72 87.6 1144.26 89.9467 1156.1 94.64C1167.93 99.3333 1176.89 107.44 1182.96 118.96C1186.37 125.36 1188.4 131.76 1189.04 138.16C1189.68 144.56 1190 151.707 1190 159.6V265.2H1151.94V229.68L1157.38 237.04C1148.95 248.667 1139.84 257.093 1130.03 262.32C1120.33 267.44 1108.01 270 1093.09 270ZM1102.36 235.76C1110.36 235.76 1117.07 234.373 1122.51 231.6C1128.06 228.72 1132.43 225.467 1135.63 221.84C1138.93 218.213 1141.17 215.173 1142.34 212.72C1144.58 208.027 1145.86 202.587 1146.18 196.4C1146.61 190.107 1146.82 184.88 1146.82 180.72L1159.61 183.92C1146.71 186.053 1136.27 187.867 1128.27 189.36C1120.27 190.747 1113.82 192.027 1108.92 193.2C1104.01 194.373 1099.7 195.653 1095.96 197.04C1091.7 198.747 1088.23 200.613 1085.57 202.64C1083.01 204.56 1081.09 206.693 1079.81 209.04C1078.64 211.387 1078.05 214 1078.05 216.88C1078.05 220.827 1079.01 224.24 1080.93 227.12C1082.96 229.893 1085.78 232.027 1089.41 233.52C1093.03 235.013 1097.35 235.76 1102.36 235.76Z" fill="#1B1D44"/>
<path fill-rule="evenodd" clip-rule="evenodd" d="M288.128 0L114.01 0C107.454 0 102.139 7.63182 102.139 17.0461V43.6195L15.7334 0.940748C8.02577 -2.86636 0 5.35612 0 17.0598L0 282.954C0 292.368 5.31513 300 11.8717 300H185.99C192.546 300 197.861 292.368 197.861 282.954V256.38L284.266 299.059C291.974 302.866 300 294.644 300 282.94V17.0461C300 7.63182 294.685 0 288.128 0ZM197.861 256.38L197.861 103.063C197.861 95.7861 194.644 89.3114 189.851 86.9442L102.139 43.6195L102.139 196.937C102.139 204.214 105.356 210.689 110.148 213.056L197.861 256.38Z" fill="#1A5AFF"/>
</svg>
