<svg width="1423" height="363" viewBox="0 0 1423 363" fill="none" xmlns="http://www.w3.org/2000/svg">
<path fill-rule="evenodd" clip-rule="evenodd" d="M354.05 98H60.625V158.625H0V258.05C0 276.8 15.1999 292 33.95 292H327.375V231.375H388V131.95C388 113.2 372.8 98 354.05 98ZM327.375 231.375H60.625V158.625H327.375V231.375Z" fill="#FF641C"/>
<path d="M537.4 294.7C527.2 294.7 518.4 293.6 511 291.4C503.8 289.2 497.8 285.8 493 281.2C488.2 276.6 484.6 270.8 482.2 263.8C480 256.6 478.9 248.1 478.9 238.3V116.5C478.9 112.5 479.2 108.9 479.8 105.7C480.6 102.5 482.6 99.9 485.8 97.9C489 95.7 494.2 94.6 501.4 94.6C508.6 94.6 513.8 95.7 517 97.9C520.2 100.1 522.1 102.9 522.7 106.3C523.5 109.7 523.9 113.4 523.9 117.4V236.5C523.9 239.7 524.1 242.4 524.5 244.6C525.1 246.6 525.9 248.1 526.9 249.1C527.9 250.1 529.3 250.8 531.1 251.2C532.9 251.6 535.1 251.8 537.7 251.8C542.1 251.8 546 252.2 549.4 253C552.8 253.8 555.4 255.6 557.2 258.4C559.2 261.2 560.2 265.9 560.2 272.5C560.2 279.7 559.1 284.9 556.9 288.1C554.7 291.3 551.8 293.2 548.2 293.8C544.8 294.4 541.2 294.7 537.4 294.7ZM469.6 147.1H502.6L544 145.9C547.8 145.9 551.4 146.3 554.8 147.1C558.2 147.7 561 149.6 563.2 152.8C565.4 156 566.5 161.3 566.5 168.7C566.5 175.5 565.4 180.5 563.2 183.7C561.2 186.9 558.5 189 555.1 190C551.7 190.8 548 191.2 544 191.2L504.7 190.3H468.4C462.6 190.1 458.5 188.4 456.1 185.2C453.9 181.8 452.8 176.2 452.8 168.4C452.8 161.2 454.2 155.9 457 152.5C459.8 148.9 464 147.1 469.6 147.1ZM595.64 294.7C588.24 294.7 582.94 293.7 579.74 291.7C576.74 289.5 574.84 286.6 574.04 283C573.44 279.4 573.14 275.7 573.14 271.9V167.2C573.14 163.2 573.54 159.5 574.34 156.1C575.14 152.7 577.04 150 580.04 148C583.24 145.8 588.54 144.7 595.94 144.7C602.94 144.7 607.94 145.7 610.94 147.7C614.14 149.5 616.14 151.7 616.94 154.3C617.74 156.7 618.14 158.8 618.14 160.6L614.54 162.4C614.94 161.6 615.94 160.2 617.54 158.2C619.34 156 621.74 153.8 624.74 151.6C627.74 149.2 631.34 147.2 635.54 145.6C639.94 144 644.94 143.2 650.54 143.2C652.74 143.2 655.14 143.4 657.74 143.8C660.54 144 663.34 144.6 666.14 145.6C669.14 146.4 671.84 147.6 674.24 149.2C676.64 150.6 678.54 152.4 679.94 154.6C681.54 156.8 682.34 159.5 682.34 162.7C682.34 170.9 680.44 177.9 676.64 183.7C672.84 189.3 668.04 192.1 662.24 192.1C658.84 192.1 656.44 191.8 655.04 191.2C653.64 190.6 652.44 190 651.44 189.4C650.64 188.8 649.64 188.3 648.44 187.9C647.24 187.3 645.04 187 641.84 187C638.84 187 635.94 187.4 633.14 188.2C630.54 189 628.04 190.3 625.64 192.1C623.44 193.7 621.64 195.8 620.24 198.4C619.04 200.8 618.44 203.5 618.44 206.5V272.5C618.44 276.3 618.04 280 617.24 283.6C616.64 287 614.74 289.7 611.54 291.7C608.34 293.7 603.04 294.7 595.64 294.7ZM753.995 294.4C744.795 294.4 736.095 292.6 727.895 289C719.895 285.4 712.895 280.4 706.895 274C700.895 267.4 696.195 259.7 692.795 250.9C689.595 241.9 687.995 232.1 687.995 221.5V167.2C687.995 163.2 688.395 159.5 689.195 156.1C689.995 152.7 691.895 149.9 694.895 147.7C698.095 145.5 703.395 144.4 710.795 144.4C718.195 144.4 723.395 145.5 726.395 147.7C729.595 149.9 731.495 152.8 732.095 156.4C732.895 159.8 733.295 163.5 733.295 167.5V221.5C733.295 227.3 734.295 232.4 736.295 236.8C738.495 241 741.595 244.2 745.595 246.4C749.795 248.6 754.695 249.7 760.295 249.7C766.095 249.7 770.995 248.6 774.995 246.4C779.195 244 782.395 240.7 784.595 236.5C786.995 232.3 788.195 227.3 788.195 221.5V166.9C788.195 162.9 788.595 159.2 789.395 155.8C790.195 152.4 792.095 149.7 795.095 147.7C798.295 145.5 803.595 144.4 810.995 144.4C818.395 144.4 823.595 145.5 826.595 147.7C829.795 149.9 831.695 152.8 832.295 156.4C833.095 159.8 833.495 163.4 833.495 167.2V272.8C833.495 276.6 833.095 280.2 832.295 283.6C831.695 286.8 829.795 289.4 826.595 291.4C823.395 293.4 818.195 294.4 810.995 294.4C805.595 294.4 801.395 293.8 798.395 292.6C795.395 291.4 793.195 289.9 791.795 288.1C790.395 286.3 789.495 284.4 789.095 282.4C788.895 280.4 788.795 278.6 788.795 277L792.695 273.7C792.095 274.5 790.795 276 788.795 278.2C786.795 280.4 784.095 282.8 780.695 285.4C777.495 287.8 773.695 289.9 769.295 291.7C764.895 293.5 759.795 294.4 753.995 294.4ZM921.266 297.4C907.266 297.4 895.166 295.1 884.966 290.5C874.966 285.9 866.766 279.9 860.366 272.5C853.966 264.9 849.166 256.5 845.966 247.3C842.966 238.1 841.466 228.9 841.466 219.7C841.466 204.7 844.866 191.4 851.666 179.8C858.466 168.2 867.866 159.1 879.866 152.5C891.866 145.7 905.666 142.3 921.266 142.3C932.866 142.3 942.866 144.2 951.266 148C959.866 151.6 966.866 156.4 972.266 162.4C977.866 168.2 981.966 174.5 984.566 181.3C987.366 188.1 988.766 194.6 988.766 200.8C988.766 211.8 986.066 220 980.666 225.4C975.466 230.6 968.766 233.2 960.566 233.2H889.166C889.566 238.4 891.366 242.8 894.566 246.4C897.966 250 902.166 252.8 907.166 254.8C912.166 256.8 917.466 257.8 923.066 257.8C927.866 257.8 932.066 257.6 935.666 257.2C939.266 256.6 942.366 255.9 944.966 255.1C947.566 254.1 949.966 253.2 952.166 252.4C954.366 251.4 956.266 250.6 957.866 250C959.666 249.4 961.366 249 962.966 248.8C965.966 248.6 968.666 249.5 971.066 251.5C973.666 253.3 975.966 256.1 977.966 259.9C979.366 262.1 980.266 264.2 980.666 266.2C981.266 268.2 981.566 270.2 981.566 272.2C981.566 277 979.066 281.3 974.066 285.1C969.266 288.9 962.366 291.9 953.366 294.1C944.566 296.3 933.866 297.4 921.266 297.4ZM889.166 208.6H936.566C939.766 208.6 942.066 208.1 943.466 207.1C945.066 205.9 945.866 203.7 945.866 200.5C945.866 196.9 944.766 193.8 942.566 191.2C940.366 188.4 937.366 186.3 933.566 184.9C929.966 183.3 925.766 182.5 920.966 182.5C914.766 182.5 909.266 183.7 904.466 186.1C899.666 188.5 895.866 191.7 893.066 195.7C890.466 199.7 889.166 204 889.166 208.6ZM1071.67 294.7C1061.47 294.7 1052.67 293.6 1045.27 291.4C1038.07 289.2 1032.07 285.8 1027.27 281.2C1022.47 276.6 1018.87 270.8 1016.47 263.8C1014.27 256.6 1013.17 248.1 1013.17 238.3V116.5C1013.17 112.5 1013.47 108.9 1014.07 105.7C1014.87 102.5 1016.87 99.9 1020.07 97.9C1023.27 95.7 1028.47 94.6 1035.67 94.6C1042.87 94.6 1048.07 95.7 1051.27 97.9C1054.47 100.1 1056.37 102.9 1056.97 106.3C1057.77 109.7 1058.17 113.4 1058.17 117.4V236.5C1058.17 239.7 1058.37 242.4 1058.77 244.6C1059.37 246.6 1060.17 248.1 1061.17 249.1C1062.17 250.1 1063.57 250.8 1065.37 251.2C1067.17 251.6 1069.37 251.8 1071.97 251.8C1076.37 251.8 1080.27 252.2 1083.67 253C1087.07 253.8 1089.67 255.6 1091.47 258.4C1093.47 261.2 1094.47 265.9 1094.47 272.5C1094.47 279.7 1093.37 284.9 1091.17 288.1C1088.97 291.3 1086.07 293.2 1082.47 293.8C1079.07 294.4 1075.47 294.7 1071.67 294.7ZM1003.87 147.1H1036.87L1078.27 145.9C1082.07 145.9 1085.67 146.3 1089.07 147.1C1092.47 147.7 1095.27 149.6 1097.47 152.8C1099.67 156 1100.77 161.3 1100.77 168.7C1100.77 175.5 1099.67 180.5 1097.47 183.7C1095.47 186.9 1092.77 189 1089.37 190C1085.97 190.8 1082.27 191.2 1078.27 191.2L1038.97 190.3H1002.67C996.87 190.1 992.77 188.4 990.37 185.2C988.17 181.8 987.07 176.2 987.07 168.4C987.07 161.2 988.47 155.9 991.27 152.5C994.07 148.9 998.27 147.1 1003.87 147.1ZM1229.81 294.4C1222.41 294.4 1216.91 293.1 1213.31 290.5C1209.91 287.9 1208.21 284.7 1208.21 280.9L1211.21 275.8C1210.01 277.8 1207.71 280.3 1204.31 283.3C1200.91 286.1 1196.51 288.7 1191.11 291.1C1185.71 293.3 1179.01 294.4 1171.01 294.4C1161.81 294.4 1153.01 292.4 1144.61 288.4C1136.41 284.4 1129.11 278.9 1122.71 271.9C1116.31 264.7 1111.21 256.6 1107.41 247.6C1103.81 238.6 1102.01 229.1 1102.01 219.1C1102.01 209.3 1103.81 200 1107.41 191.2C1111.21 182.2 1116.31 174.3 1122.71 167.5C1129.31 160.5 1136.71 155 1144.91 151C1153.11 147 1161.81 145 1171.01 145C1178.41 145 1184.71 146.1 1189.91 148.3C1195.11 150.3 1199.41 152.7 1202.81 155.5C1206.41 158.3 1209.11 161 1210.91 163.6L1208.51 159.4C1208.31 154.6 1209.91 151 1213.31 148.6C1216.91 146 1222.51 144.7 1230.11 144.7C1237.31 144.7 1242.41 145.8 1245.41 148C1248.61 150.2 1250.51 153.1 1251.11 156.7C1251.91 160.3 1252.31 164.1 1252.31 168.1V271.6C1252.31 275.4 1251.91 279.1 1251.11 282.7C1250.51 286.3 1248.61 289.2 1245.41 291.4C1242.41 293.4 1237.21 294.4 1229.81 294.4ZM1177.61 249.7C1182.81 249.7 1187.51 248.4 1191.71 245.8C1196.11 243 1199.51 239.3 1201.91 234.7C1204.51 230.1 1205.81 225 1205.81 219.4C1205.81 213.6 1204.51 208.5 1201.91 204.1C1199.31 199.5 1195.81 195.9 1191.41 193.3C1187.01 190.5 1182.21 189.1 1177.01 189.1C1171.21 189.1 1166.01 190.5 1161.41 193.3C1157.01 196.1 1153.41 199.8 1150.61 204.4C1148.01 209 1146.71 214.2 1146.71 220C1146.71 225.4 1148.01 230.4 1150.61 235C1153.41 239.4 1157.11 243 1161.71 245.8C1166.51 248.4 1171.81 249.7 1177.61 249.7ZM1346.35 294.4C1336.55 294.4 1327.85 292.4 1320.25 288.4C1312.85 284.2 1306.65 278.6 1301.65 271.6C1296.85 264.6 1293.15 256.6 1290.55 247.6C1288.15 238.6 1287.05 229 1287.25 218.8C1287.25 209 1288.55 199.6 1291.15 190.6C1293.75 181.6 1297.45 173.7 1302.25 166.9C1307.25 160.1 1313.35 154.8 1320.55 151C1327.95 147 1336.55 145 1346.35 145C1355.15 145 1363.65 147 1371.85 151C1380.25 155 1387.65 160.5 1394.05 167.5C1400.45 174.3 1405.45 182.2 1409.05 191.2C1412.85 200 1414.75 209.3 1414.75 219.1C1414.75 229.3 1412.85 239 1409.05 248.2C1405.45 257.2 1400.45 265.2 1394.05 272.2C1387.65 279.2 1380.35 284.7 1372.15 288.7C1363.95 292.5 1355.35 294.4 1346.35 294.4ZM1340.05 250C1345.65 250 1350.65 248.7 1355.05 246.1C1359.45 243.3 1362.95 239.6 1365.55 235C1368.35 230.4 1369.75 225.3 1369.75 219.7C1369.75 213.9 1368.45 208.8 1365.85 204.4C1363.25 199.8 1359.75 196.2 1355.35 193.6C1350.95 191 1345.95 189.7 1340.35 189.7C1334.95 189.7 1329.95 191 1325.35 193.6C1320.95 196.2 1317.45 199.8 1314.85 204.4C1312.45 208.8 1311.25 213.9 1311.25 219.7C1311.25 225.3 1312.55 230.4 1315.15 235C1317.75 239.6 1321.25 243.3 1325.65 246.1C1330.05 248.7 1334.85 250 1340.05 250ZM1287.85 294.7C1280.65 294.7 1275.45 293.6 1272.25 291.4C1269.05 289.2 1267.05 286.4 1266.25 283C1265.65 279.4 1265.35 275.7 1265.35 271.9V99.4C1265.35 95.2 1265.75 91.4 1266.55 88C1267.35 84.6 1269.25 81.9 1272.25 79.9C1275.45 77.7 1280.75 76.6 1288.15 76.6C1295.35 76.6 1300.45 77.7 1303.45 79.9C1306.45 82.1 1308.25 85 1308.85 88.6C1309.45 92 1309.65 95.6 1309.45 99.4V281.2C1308.45 285.8 1306.35 289.2 1303.15 291.4C1299.95 293.6 1294.85 294.7 1287.85 294.7Z" fill="white"/>
</svg>
