<?xml version="1.0" encoding="UTF-8" standalone="no"?>
<!DOCTYPE svg PUBLIC "-//W3C//DTD SVG 1.1//EN" "http://www.w3.org/Graphics/SVG/1.1/DTD/svg11.dtd">
<svg width="100%" height="100%" viewBox="0 0 1133 217" version="1.1" xmlns="http://www.w3.org/2000/svg" xmlns:xlink="http://www.w3.org/1999/xlink" xml:space="preserve" xmlns:serif="http://www.serif.com/" style="fill-rule:evenodd;clip-rule:evenodd;stroke-linejoin:round;stroke-miterlimit:2;">
    <g transform="matrix(1,0,0,1,-2250.59,-431.682)">
        <g transform="matrix(1,0,0,1,1972.33,0)">
            <g transform="matrix(1.95826,0,0,1.95826,-5265.95,-430.476)">
                <g>
                    <path d="M3017.78,521.523L3014.09,521.523C3012.08,521.523 3010.57,521.022 3009.6,520.034C3007.94,518.347 3008.04,515.521 3008.11,513.458L3008.12,512.988C3008.13,512.819 3008.13,496.164 3008.13,490.528C3008.13,489.929 3008.62,489.448 3009.21,489.448L3016.26,489.448C3016.86,489.448 3017.34,488.962 3017.34,488.364L3017.34,472.302C3017.34,471.703 3016.86,471.217 3016.26,471.217L3009.21,471.217C3008.62,471.217 3008.13,470.732 3008.13,470.133L3008.13,451.511C3008.13,450.912 3007.64,450.426 3007.05,450.426L2988.07,450.426C2987.48,450.426 2986.99,450.912 2986.99,451.511C2986.99,451.511 2986.99,470.133 2986.99,470.133C2986.99,470.732 2986.5,471.217 2985.91,471.217L2978.86,471.217C2978.26,471.217 2977.78,471.703 2977.78,472.302L2977.78,488.363C2977.78,488.962 2978.26,489.447 2978.86,489.447L2985.91,489.447C2986.5,489.447 2986.99,489.932 2986.99,490.531L2986.99,523.127C2986.99,533.711 2993.08,539.626 3004.61,540.231C3004.7,540.236 3004.83,540.238 3004.98,540.238C3006.87,540.238 3013.09,539.884 3015.42,539.748C3015.93,539.718 3016.35,539.334 3016.42,538.828L3018.85,522.769C3018.95,522.113 3018.45,521.523 3017.78,521.523L3017.78,521.523Z" style="fill:rgb(2,7,27);fill-rule:nonzero;"/>
                    <path d="M3061.17,471.29C3056.69,471.349 3051.37,471.926 3046.87,474.724C3046.51,474.948 3046.05,474.688 3046.05,474.265L3046.05,472.37C3046.05,471.771 3045.56,471.286 3044.96,471.286L3025.99,471.286C3025.39,471.286 3024.91,471.771 3024.91,472.37L3024.91,538.09C3024.91,538.689 3025.39,539.174 3025.99,539.174L3046.24,539.174C3046.84,539.174 3047.32,538.689 3047.32,538.09L3047.32,499.885C3047.32,497.254 3047.32,495.176 3048.42,492.827C3048.83,491.915 3050.24,490.035 3052.68,489.446C3054.87,488.918 3058.58,489.164 3060.44,489.337C3061.06,489.395 3061.59,488.922 3061.62,488.302L3062.26,472.42C3062.29,471.798 3061.79,471.282 3061.17,471.29L3061.17,471.29Z" style="fill:rgb(2,7,27);fill-rule:nonzero;"/>
                    <path d="M3127.75,471.285L3107.51,471.285C3106.91,471.285 3106.42,471.771 3106.42,472.369L3106.42,509.506C3106.42,512.08 3106.42,515.284 3105.32,517.633C3104.36,519.795 3101.34,521.139 3097.43,521.139C3095.33,521.139 3093.69,520.655 3092.42,519.662C3091.64,519.052 3091,518.234 3090.51,517.245C3089.46,514.912 3089.32,512.024 3089.32,509.506L3089.32,472.369C3089.32,471.771 3088.83,471.285 3088.23,471.285L3067.99,471.285C3067.39,471.285 3066.9,471.771 3066.9,472.369L3066.9,510.575C3066.9,520.582 3068.07,526.221 3074.99,533.183L3074.99,533.185C3075.46,533.65 3075.98,534.103 3076.52,534.529C3076.63,534.614 3083.75,540.204 3093.18,540.204C3097.41,540.204 3102.11,539.075 3106.85,535.813C3107.21,535.567 3107.7,535.827 3107.7,536.261L3107.7,538.09C3107.7,538.688 3108.18,539.174 3108.78,539.174L3127.75,539.174C3128.35,539.174 3128.84,538.688 3128.84,538.09C3128.84,538.09 3128.84,472.369 3128.84,472.369C3128.84,471.771 3128.35,471.285 3127.75,471.285L3127.75,471.285Z" style="fill:rgb(2,7,27);fill-rule:nonzero;"/>
                    <path d="M3204.05,495.716C3203.29,493.166 3202.22,490.686 3200.88,488.339L3200.89,488.334L3200.23,487.233C3200.06,486.967 3199.89,486.705 3199.72,486.444L3199.34,485.857C3199.14,485.558 3198.93,485.266 3198.71,484.981L3198.67,484.93C3198.41,484.573 3198.14,484.221 3197.87,483.874L3197.64,483.595C3197.4,483.304 3197.16,483.018 3196.92,482.736L3196.73,482.515L3196.33,482.866L3196.68,482.451C3196.3,482.022 3195.89,481.583 3195.44,481.116L3195.22,480.894C3194.94,480.61 3194.65,480.33 3194.36,480.055L3194.26,479.966C3193.91,479.623 3193.54,479.291 3193.16,478.972L3192.87,478.728C3192.36,478.302 3191.89,477.918 3191.39,477.545C3191.28,477.458 3191.16,477.372 3191.05,477.287L3190.95,477.216C3190.38,476.797 3189.78,476.388 3189.16,475.983L3189.08,475.935C3188.49,475.561 3187.5,474.974 3186.89,474.633C3186.72,474.544 3186.56,474.457 3186.39,474.366L3186.11,474.824L3186.34,474.337L3186.24,474.289C3185.96,474.144 3185.68,474.003 3185.37,473.851L3185.22,473.777C3184.59,473.477 3183.97,473.201 3183.39,472.959L3183.21,472.887C3182.85,472.742 3182.49,472.602 3182.09,472.451C3181.95,472.4 3181.81,472.352 3181.68,472.304C3181.24,472.148 3180.8,471.998 3180.32,471.849L3180.24,471.825C3179.78,471.68 3179.27,471.538 3178.7,471.388L3178.25,471.275C3177.24,471.026 3176.21,470.817 3175.18,470.655L3174.75,470.59C3173.69,470.437 3172.61,470.329 3171.52,470.267L3171.12,470.248C3170.49,470.22 3169.97,470.207 3169.47,470.207C3168.97,470.207 3168.42,470.22 3167.8,470.248C3167.67,470.254 3167.54,470.262 3167.41,470.271L3167.31,470.276C3166.9,470.3 3166.49,470.331 3166.09,470.368L3165.96,470.379C3165.84,470.39 3165.72,470.401 3165.61,470.413C3165.02,470.474 3164.5,470.539 3164.02,470.61C3164.02,470.61 3163.99,470.614 3163.98,470.615L3163.9,470.628C3163.43,470.701 3162.66,470.84 3162.19,470.938L3161.92,470.994C3161.53,471.077 3161.14,471.164 3160.75,471.259L3160.63,471.288C3160.52,471.316 3160.4,471.344 3160.29,471.373C3159.78,471.506 3159.26,471.648 3158.75,471.805C3158.24,471.961 3157.74,472.13 3157.25,472.306C3157.13,472.347 3157.02,472.389 3156.91,472.431L3156.8,472.469C3156.44,472.605 3156.07,472.746 3155.71,472.892L3155.61,472.933C3155.5,472.978 3155.39,473.024 3155.28,473.07C3154.8,473.274 3154.32,473.485 3153.84,473.713C3153.37,473.937 3152.91,474.174 3152.45,474.417C3152.34,474.474 3152.23,474.533 3152.12,474.592L3152.04,474.639C3151.7,474.824 3151.36,475.013 3151.03,475.208L3150.63,475.445C3150.19,475.713 3149.75,475.987 3149.32,476.273C3145.03,479.136 3141.33,482.957 3138.64,487.324C3138.37,487.762 3138.12,488.208 3137.86,488.659L3137.55,489.234C3137.49,489.345 3137.43,489.456 3137.37,489.569C3137.31,489.677 3137.26,489.787 3137.21,489.897L3137.07,490.168C3137.02,490.278 3136.96,490.388 3136.91,490.498C3136.68,490.965 3136.47,491.435 3136.26,491.913C3135.9,492.741 3135.57,493.627 3135.24,494.623C3134.23,497.645 3133.64,500.774 3133.47,503.923C3133.44,504.526 3133.43,505.142 3133.43,505.752C3133.43,506.363 3133.44,506.978 3133.47,507.582C3133.57,509.374 3133.8,511.169 3134.16,512.916C3134.28,513.5 3134.41,514.079 3134.56,514.636C3134.74,515.317 3134.95,516.031 3135.24,516.882C3135.75,518.408 3136.35,519.884 3137.03,521.268C3137.09,521.38 3137.15,521.489 3137.2,521.599L3137.31,521.802C3137.5,522.17 3137.69,522.537 3137.89,522.899L3137.99,523.073C3138.2,523.446 3138.42,523.816 3138.64,524.181C3141.33,528.548 3145.02,532.369 3149.32,535.232C3149.75,535.518 3150.19,535.792 3150.63,536.06L3151.03,536.297C3151.36,536.491 3151.7,536.68 3152.03,536.865L3152.12,536.912C3152.23,536.972 3152.34,537.031 3152.44,537.088C3152.9,537.331 3153.37,537.568 3153.8,537.768L3153.85,537.795C3154.32,538.019 3154.8,538.23 3155.28,538.434C3155.39,538.481 3155.5,538.526 3155.61,538.571L3155.71,538.611C3156.07,538.758 3156.43,538.899 3156.8,539.035L3156.89,539.068C3157.01,539.112 3157.12,539.155 3157.24,539.198C3157.74,539.375 3158.24,539.544 3158.75,539.702C3159.21,539.843 3159.72,539.984 3160.29,540.132C3160.4,540.161 3160.51,540.189 3160.63,540.216L3160.75,540.246C3161.14,540.34 3161.52,540.428 3161.91,540.511L3162.38,540.608C3162.82,540.699 3163.25,540.778 3163.69,540.846L3163.98,540.89C3163.99,540.891 3164,540.892 3164.01,540.893L3164.02,540.895C3164.49,540.966 3165.01,541.031 3165.6,541.093C3165.72,541.105 3165.84,541.116 3165.96,541.126L3166.09,541.138C3166.49,541.175 3166.9,541.205 3167.31,541.229L3167.43,541.237C3167.55,541.244 3167.68,541.251 3167.8,541.257C3168.42,541.285 3168.97,541.299 3169.47,541.299C3169.97,541.299 3170.49,541.286 3171.14,541.257L3171.53,541.237C3172.61,541.177 3173.69,541.068 3174.79,540.911L3175.18,540.851C3176.21,540.689 3177.24,540.48 3178.28,540.225L3178.69,540.12C3179.27,539.968 3179.78,539.825 3180.26,539.675L3180.35,539.648C3180.8,539.507 3181.24,539.355 3181.69,539.198L3182.13,539.039C3182.49,538.904 3182.85,538.764 3183.26,538.598L3183.38,538.55C3183.98,538.301 3184.59,538.03 3185.23,537.721L3185.4,537.642C3185.68,537.504 3185.96,537.361 3186.28,537.197L3186.39,537.137C3186.56,537.05 3186.72,536.962 3186.89,536.873L3187.09,536.762C3187.77,536.383 3188.45,535.979 3189.12,535.549L3189.28,535.442C3189.87,535.064 3190.44,534.668 3191,534.254L3191.41,533.952C3191.88,533.59 3192.36,533.205 3192.87,532.776L3192.52,532.37L3192.93,532.728L3193.29,532.422C3193.62,532.137 3193.95,531.843 3194.27,531.539L3194.35,531.456C3194.65,531.179 3194.94,530.897 3195.22,530.611L3195.46,530.362C3195.9,529.911 3196.3,529.482 3196.71,529.024L3196.92,528.775C3197.16,528.489 3197.41,528.199 3197.66,527.886L3197.86,527.637C3197.99,527.47 3198.12,527.302 3198.25,527.133L3198.27,527.139L3198.5,526.827C3198.89,526.308 3199.28,525.751 3199.7,525.105C3200.04,524.589 3200.33,524.126 3200.61,523.656L3200.91,523.159L3200.89,523.152C3201.2,522.618 3201.71,521.56 3202.12,520.707C3202.43,520.061 3202.04,519.3 3201.33,519.173L3183.13,515.902C3182.73,515.83 3182.33,515.995 3182.07,516.316C3178.81,520.488 3174.23,522.65 3169.32,522.65C3163.54,522.65 3158.31,519.569 3155.38,514.614C3154.96,513.887 3155.47,512.968 3156.32,512.968L3203.86,512.968C3204.39,512.968 3204.85,512.585 3204.93,512.062C3205.28,510.017 3205.52,507.71 3205.52,505.751C3205.52,502.361 3205.02,498.983 3204.05,495.716L3204.05,495.716ZM3183.2,498.013L3157.37,498.013C3156.69,498.013 3156.17,497.393 3156.3,496.725C3157.24,491.715 3163.6,487.841 3170.28,487.841C3177.64,487.841 3183.43,491.742 3184.28,496.744C3184.39,497.407 3183.88,498.013 3183.2,498.013L3183.2,498.013Z" style="fill:rgb(2,7,27);fill-rule:nonzero;"/>
                    <path d="M3246.25,521.523L3242.56,521.523C3240.55,521.523 3239.04,521.022 3238.07,520.034C3236.41,518.347 3236.51,515.521 3236.57,513.458L3236.59,512.988C3236.59,512.819 3236.6,496.164 3236.6,490.528C3236.6,489.929 3237.08,489.448 3237.68,489.448L3244.73,489.448C3245.33,489.448 3245.81,488.962 3245.81,488.364L3245.81,472.302C3245.81,471.703 3245.33,471.217 3244.73,471.217L3237.68,471.217C3237.08,471.217 3236.6,470.732 3236.6,470.133L3236.6,451.511C3236.6,450.912 3236.11,450.426 3235.51,450.426L3216.54,450.426C3215.94,450.426 3215.46,450.912 3215.46,451.511L3215.46,470.133C3215.46,470.732 3214.97,471.217 3214.37,471.217L3207.33,471.217C3206.73,471.217 3206.24,471.703 3206.24,472.302L3206.24,488.363C3206.24,488.962 3206.73,489.447 3207.33,489.447L3214.37,489.447C3214.97,489.447 3215.46,489.932 3215.46,490.531L3215.46,523.127C3215.46,533.711 3221.55,539.626 3233.08,540.231C3233.17,540.236 3233.29,540.238 3233.45,540.238C3235.34,540.238 3241.56,539.884 3243.89,539.748C3244.4,539.718 3244.82,539.334 3244.89,538.828L3247.32,522.769C3247.42,522.113 3246.91,521.523 3246.25,521.523L3246.25,521.523Z" style="fill:rgb(2,7,27);fill-rule:nonzero;"/>
                    <path d="M3324.84,471.247L3305.87,471.247C3305.27,471.247 3304.78,471.733 3304.78,472.331L3304.78,474.401C3304.78,474.819 3304.33,475.073 3303.97,474.868C3298.53,471.794 3292.39,470.178 3286.08,470.178C3266.21,470.178 3250.03,486.125 3250.03,505.726C3250.03,525.327 3266.21,541.274 3286.08,541.274C3292.39,541.274 3298.53,539.658 3303.97,536.584C3304.33,536.379 3304.78,536.633 3304.78,537.051L3304.78,538.052C3304.78,538.65 3305.27,539.136 3305.87,539.136L3324.84,539.136C3325.44,539.136 3325.92,538.65 3325.92,538.052L3325.92,472.331C3325.92,471.732 3325.44,471.247 3324.84,471.247L3324.84,471.247ZM3289.33,522.03C3280.22,522.03 3272.8,514.716 3272.8,505.726C3272.8,496.736 3280.22,489.422 3289.33,489.422C3298.45,489.422 3304.78,496.736 3304.78,505.726C3304.78,514.716 3298.45,522.03 3289.33,522.03Z" style="fill:rgb(2,7,27);fill-rule:nonzero;"/>
                    <path d="M3373.61,470.178C3367.3,470.178 3361.16,471.794 3355.72,474.868C3355.36,475.073 3354.91,474.818 3354.91,474.4L3354.91,450.949C3354.91,450.351 3354.42,449.865 3353.82,449.865L3334.85,449.865C3334.25,449.865 3333.77,450.351 3333.77,450.949L3333.77,538.052C3333.77,538.65 3334.25,539.136 3334.85,539.136L3353.82,539.136C3354.42,539.136 3354.91,538.65 3354.91,538.052L3354.91,537.051C3354.91,536.633 3355.36,536.379 3355.72,536.584C3361.16,539.658 3367.3,541.274 3373.61,541.274C3393.48,541.274 3409.65,525.327 3409.65,505.726C3409.65,486.125 3393.48,470.178 3373.61,470.178L3373.61,470.178ZM3370.36,522.03C3361.24,522.03 3354.91,514.716 3354.91,505.726C3354.91,496.736 3361.24,489.422 3370.36,489.422C3379.47,489.422 3386.89,496.736 3386.89,505.726C3386.89,514.716 3379.47,522.03 3370.36,522.03Z" style="fill:rgb(2,7,27);fill-rule:nonzero;"/>
                </g>
            </g>
            <g transform="matrix(0.627485,0,0,0.484197,-64.2324,294.743)">
                <path d="M869.478,282.817C875.201,282.817 880.689,285.763 884.736,291.007C888.782,296.251 891.056,303.364 891.056,310.78L891.056,702.267C891.056,709.683 888.782,716.796 884.736,722.04C880.689,727.284 875.201,730.23 869.478,730.23L718.433,730.23C623.096,730.23 545.81,630.073 545.81,506.524L545.81,338.743C545.81,307.856 565.131,282.817 588.965,282.817L869.478,282.817ZM718.433,528.894L718.433,596.006C718.433,601.939 720.251,607.629 723.489,611.825C726.726,616.02 731.117,618.377 735.695,618.377L787.482,618.377C792.06,618.377 796.451,616.02 799.688,611.825C802.925,607.629 804.744,601.939 804.744,596.006L804.744,417.041C804.744,404.686 797.016,394.67 787.482,394.67L649.383,394.67C644.805,394.67 640.415,397.027 637.177,401.222C633.94,405.418 632.121,411.108 632.121,417.041L632.121,484.153C632.121,490.086 633.94,495.776 637.177,499.971C640.415,504.167 644.805,506.524 649.383,506.524L701.17,506.524C705.749,506.524 710.139,508.88 713.377,513.076C716.614,517.271 718.433,522.961 718.433,528.894Z" style="fill:rgb(46,91,255);"/>
            </g>
        </g>
    </g>
</svg>
