<?xml version="1.0" encoding="UTF-8" standalone="no"?>
<!DOCTYPE svg PUBLIC "-//W3C//DTD SVG 1.1//EN" "http://www.w3.org/Graphics/SVG/1.1/DTD/svg11.dtd">
<svg width="100%" height="100%" viewBox="0 0 1108 217" version="1.1" xmlns="http://www.w3.org/2000/svg" xmlns:xlink="http://www.w3.org/1999/xlink" xml:space="preserve" xmlns:serif="http://www.serif.com/" style="fill-rule:evenodd;clip-rule:evenodd;stroke-linejoin:round;stroke-miterlimit:2;">
    <g transform="matrix(1,0,0,1,-2250.59,-1570.73)">
        <g id="Artboard2" transform="matrix(1,0,0,1,1972.33,1139.05)">
            <rect x="0" y="0" width="1920" height="1080" style="fill:none;"/>
            <g>
                <g transform="matrix(0.627485,0,0,0.484197,-64.2324,294.743)">
                    <path d="M869.478,282.817C875.201,282.817 880.689,285.763 884.736,291.007C888.782,296.251 891.056,303.364 891.056,310.78L891.056,702.267C891.056,709.683 888.782,716.796 884.736,722.04C880.689,727.284 875.201,730.23 869.478,730.23L718.433,730.23C623.096,730.23 545.81,630.073 545.81,506.524L545.81,338.743C545.81,307.856 565.131,282.817 588.965,282.817L869.478,282.817ZM718.433,528.894L718.433,596.006C718.433,601.939 720.251,607.629 723.489,611.825C726.726,616.02 731.117,618.377 735.695,618.377L787.482,618.377C792.06,618.377 796.451,616.02 799.688,611.825C802.925,607.629 804.744,601.939 804.744,596.006L804.744,417.041C804.744,404.686 797.016,394.67 787.482,394.67L649.383,394.67C644.805,394.67 640.415,397.027 637.177,401.222C633.94,405.418 632.121,411.108 632.121,417.041L632.121,484.153C632.121,490.086 633.94,495.776 637.177,499.971C640.415,504.167 644.805,506.524 649.383,506.524L701.17,506.524C705.749,506.524 710.139,508.88 713.377,513.076C716.614,517.271 718.433,522.961 718.433,528.894Z" style="fill:white;"/>
                </g>
                <g transform="matrix(1.92944,0,0,1.92944,-4635.77,-378.434)">
                    <g transform="matrix(1,0,0,1,5.8983,-0.518284)">
                        <path d="M2738.8,465.818L2738.8,457.855C2738.8,455.287 2736.75,453.232 2734.18,453.232L2725.96,453.232L2725.96,444.114C2725.96,441.674 2723.9,439.619 2721.46,439.619L2709.65,439.619C2707.21,439.619 2705.15,441.674 2705.15,444.114L2705.15,453.232L2700.53,453.232C2697.96,453.232 2695.91,455.287 2695.91,457.855L2695.91,465.818C2695.91,468.386 2697.96,470.441 2700.53,470.441L2705.15,470.441L2705.15,493.044C2705.15,505.886 2709.78,519.499 2729.81,519.499C2732.38,519.499 2734.31,519.242 2735.98,518.985C2737.65,518.729 2738.8,517.316 2738.8,515.646L2738.8,504.602C2738.8,502.675 2737.26,501.134 2735.33,501.263L2734.95,501.263C2728.4,501.263 2725.96,497.795 2725.96,490.989L2725.96,470.441L2734.18,470.441C2736.75,470.441 2738.8,468.386 2738.8,465.818Z" style="fill:white;fill-rule:nonzero;"/>
                    </g>
                    <g transform="matrix(1,0,0,1,-2.91253,-0.518284)">
                        <path d="M2773.09,463.121L2773.09,457.855C2773.09,455.287 2771.04,453.232 2768.6,453.232L2756.78,453.232C2754.34,453.232 2752.29,455.287 2752.29,457.855L2752.29,513.72C2752.29,516.289 2754.34,518.343 2756.78,518.343L2768.6,518.343C2771.04,518.343 2773.09,516.289 2773.09,513.72L2773.09,492.658C2773.09,482.384 2774.89,472.624 2790.04,473.652C2791.97,473.78 2793.77,472.239 2793.77,470.184L2793.77,455.415C2793.77,453.232 2791.71,451.691 2789.66,452.076C2783.24,453.232 2776.94,457.085 2773.09,463.121Z" style="fill:white;fill-rule:nonzero;"/>
                    </g>
                    <g transform="matrix(1,0,0,1,-8.09538,-0.518284)">
                        <path d="M2850.15,453.232C2847.71,453.232 2845.65,455.287 2845.65,457.855L2845.65,488.292C2845.65,495.612 2841.28,499.593 2835.25,499.593C2829.47,499.593 2824.85,495.869 2824.85,488.292L2824.85,457.855C2824.85,455.287 2822.79,453.232 2820.22,453.232L2808.54,453.232C2805.97,453.232 2803.91,455.287 2803.91,457.855L2803.91,493.943C2803.91,507.17 2811.62,519.884 2827.8,519.884C2836.28,519.884 2841.93,516.674 2845.65,512.436L2845.65,514.876C2845.65,516.802 2847.19,518.343 2848.99,518.343L2861.83,518.343C2864.4,518.343 2866.46,516.289 2866.46,513.72L2866.46,457.855C2866.46,455.287 2864.4,453.232 2861.83,453.232L2850.15,453.232Z" style="fill:white;fill-rule:nonzero;"/>
                    </g>
                    <g transform="matrix(1,0,0,1,-13.7965,-0.518284)">
                        <path d="M2910.25,451.691C2891.63,451.691 2876.73,466.588 2876.73,485.852C2876.73,506.015 2891.24,519.884 2913.33,519.884C2924.25,519.884 2933.24,515.775 2938.89,509.482C2940.17,507.812 2939.79,505.372 2937.99,504.217L2928.87,498.823C2927.59,498.052 2926.05,498.181 2924.89,499.208C2922.45,501.263 2918.47,503.189 2913.33,503.189C2905.37,503.189 2899.08,499.722 2896.89,492.145L2939.66,492.145C2942.1,492.145 2944.15,490.09 2944.15,487.521C2944.54,463.249 2928.49,451.691 2910.25,451.691ZM2897.02,479.559C2898.95,472.367 2904.34,468.386 2911.02,468.386C2918.21,468.386 2923.48,471.854 2925.15,479.559L2897.02,479.559Z" style="fill:white;fill-rule:nonzero;"/>
                    </g>
                    <g transform="matrix(1,0,0,1,-17.9428,7.94809e-13)">
                        <path d="M2991.28,465.818L2991.28,457.855C2991.28,455.287 2989.23,453.232 2986.66,453.232L2978.44,453.232L2978.44,444.114C2978.44,441.674 2976.39,439.619 2973.95,439.619L2962.13,439.619C2959.69,439.619 2957.64,441.674 2957.64,444.114L2957.64,453.232L2953.01,453.232C2950.45,453.232 2948.39,455.287 2948.39,457.855L2948.39,465.818C2948.39,468.386 2950.45,470.441 2953.01,470.441L2957.64,470.441L2957.64,493.044C2957.64,505.886 2962.26,519.499 2982.3,519.499C2984.86,519.499 2986.79,519.242 2988.46,518.985C2990.13,518.729 2991.28,517.316 2991.28,515.646L2991.28,504.602C2991.28,502.675 2989.74,501.134 2987.82,501.263L2987.43,501.263C2980.88,501.263 2978.44,497.795 2978.44,490.989L2978.44,470.441L2986.66,470.441C2989.23,470.441 2991.28,468.386 2991.28,465.818Z" style="fill:white;fill-rule:nonzero;"/>
                    </g>
                    <g transform="matrix(1,0,0,1,-25.717,-0.518284)">
                        <path d="M3049.2,456.699L3049.2,459.653C3045.35,454.902 3039.57,451.691 3030.84,451.691C3010.55,451.691 2999.63,468.771 2999.63,485.852C2999.63,502.804 3010.55,519.884 3030.84,519.884C3039.57,519.884 3045.35,516.674 3049.2,511.922L3049.2,514.876C3049.2,516.802 3050.74,518.343 3052.67,518.343L3065.51,518.343C3068.08,518.343 3070.14,516.289 3070.14,513.72L3070.14,457.855C3070.14,455.287 3068.08,453.232 3065.51,453.232L3052.67,453.232C3050.74,453.232 3049.2,454.773 3049.2,456.699ZM3034.56,499.722C3025.96,499.722 3020.69,493.814 3020.69,485.852C3020.69,477.761 3025.96,471.854 3034.56,471.854C3042.4,471.854 3048.56,477.119 3048.56,485.852C3048.56,494.456 3042.4,499.722 3034.56,499.722Z" style="fill:white;fill-rule:nonzero;"/>
                    </g>
                    <g transform="matrix(1,0,0,1,-34.0096,-0.518284)">
                        <path d="M3123.56,451.691C3114.7,451.691 3108.92,454.902 3105.2,459.653L3105.2,433.069C3105.2,430.501 3103.14,428.446 3100.57,428.446L3088.89,428.446C3086.32,428.446 3084.26,430.501 3084.26,433.069L3084.26,513.72C3084.26,516.289 3086.32,518.343 3088.89,518.343L3101.73,518.343C3103.66,518.343 3105.2,516.802 3105.2,514.876L3105.2,511.922C3108.92,516.674 3114.7,519.884 3123.56,519.884C3143.72,519.884 3154.77,502.804 3154.77,485.852C3154.77,468.771 3143.72,451.691 3123.56,451.691ZM3119.71,499.722C3111.88,499.722 3105.84,494.456 3105.84,485.852C3105.84,477.119 3111.88,471.854 3119.71,471.854C3128.44,471.854 3133.71,477.761 3133.71,485.852C3133.71,493.814 3128.44,499.722 3119.71,499.722Z" style="fill:white;fill-rule:nonzero;"/>
                    </g>
                </g>
            </g>
        </g>
    </g>
</svg>
