<svg width="338" height="170" viewBox="0 0 338 170" fill="none" xmlns="http://www.w3.org/2000/svg">
<path d="M68.0736 29.4269V58.713H34.0368H0L0.796182 93.4523C1.39332 126.576 1.79141 129 6.76755 138.694C12.938 150.611 21.2979 158.488 34.2358 164.547C42.9938 168.586 46.3776 168.788 156.251 169.394L269.11 170V140.512V111.226H303.146H337.183L336.586 77.2945C335.79 44.1709 335.591 42.9591 329.818 31.4466C326.037 23.9736 320.662 16.9046 315.288 12.8651C298.966 0.140839 297.772 0.140839 177.151 0.140839H68.0736V29.4269ZM267.119 84.9694V111.226H168.592H70.064V84.9694V58.713H168.592H267.119V84.9694Z" fill="url(#paint0_linear_2004_5)"/>
<defs>
<linearGradient id="paint0_linear_2004_5" x1="-7.73349e-06" y1="-140.23" x2="172.396" y2="167.871" gradientUnits="userSpaceOnUse">
<stop stop-color="#8DA10F"/>
<stop offset="1" stop-color="#2BAA00"/>
</linearGradient>
</defs>
</svg>
