<svg width="128" height="144" viewBox="0 0 128 144" fill="none" xmlns="http://www.w3.org/2000/svg">
<path fill-rule="evenodd" clip-rule="evenodd" d="M117.655 65.9516C120.042 69.6204 120.49 74.208 118.956 78.3071C109.193 104.388 91.1695 126.434 68.0695 141.262C64.0707 143.829 59.0402 144.217 54.7479 142.179C22.3796 126.808 0 93.8197 0 55.604C0 48.902 0.688308 42.3607 1.99809 36.047C3.02013 31.1204 6.70045 27.1839 11.5475 25.8339C19.7435 23.551 28.3824 22.3307 37.3062 22.3307C70.9671 22.3307 100.573 39.6935 117.655 65.9516Z" fill="#2BAA00" fill-opacity="0.7"/>
<path fill-rule="evenodd" clip-rule="evenodd" d="M38.3522 60.5815C35.8874 56.9646 35.4411 52.358 37.0415 48.2842C44.458 29.4056 57.5338 13.3711 74.1803 2.26913C78.1335 -0.36734 83.1878 -0.761658 87.4309 1.37723C111.495 13.5074 128 38.4399 128 67.2274C128 71.7466 127.593 76.1709 126.814 80.4655C125.916 85.4162 122.213 89.3771 117.334 90.6046C111.562 92.0567 105.519 92.8279 99.2967 92.8279C73.9644 92.8279 51.6173 80.0468 38.3522 60.5815Z" fill="#BCD908" fill-opacity="0.7"/>
</svg>
