<svg width="388" height="194" viewBox="0 0 388 194" fill="none" xmlns="http://www.w3.org/2000/svg">
<path d="M78.3329 33.4483V66.8965H39.1665H0L0.916175 106.573C1.60331 144.404 2.06139 147.172 7.78749 158.245C14.8878 171.855 24.5077 180.851 39.3955 187.772C49.4734 192.385 53.3672 192.616 179.799 193.308L309.667 194V160.321V126.873H348.834H388L387.313 88.1189C386.397 50.2878 386.168 48.9037 379.525 35.7551C375.174 27.22 368.989 19.1463 362.805 14.5327C344.024 -3.38256e-06 342.649 -3.38256e-06 203.849 -3.38256e-06H78.3329V33.4483ZM307.377 96.8847V126.873H194H80.6234V96.8847V66.8965H194H307.377V96.8847Z" fill="url(#paint0_linear_2017_2)"/>
<defs>
<linearGradient id="paint0_linear_2017_2" x1="-8.89901e-06" y1="-160.321" x2="196.123" y2="192.821" gradientUnits="userSpaceOnUse">
<stop stop-color="#E87228"/>
<stop offset="1" stop-color="#FF641C"/>
</linearGradient>
</defs>
</svg>
