<?xml version="1.0" encoding="UTF-8" standalone="no"?>
<!DOCTYPE svg PUBLIC "-//W3C//DTD SVG 1.1//EN" "http://www.w3.org/Graphics/SVG/1.1/DTD/svg11.dtd">
<svg width="100%" height="100%" viewBox="0 0 217 217" version="1.1" xmlns="http://www.w3.org/2000/svg" xmlns:xlink="http://www.w3.org/1999/xlink" xml:space="preserve" xmlns:serif="http://www.serif.com/" style="fill-rule:evenodd;clip-rule:evenodd;stroke-linejoin:round;stroke-miterlimit:2;">
    <g transform="matrix(1,0,0,1,-2250.59,-431.682)">
        <g transform="matrix(1,0,0,1,1972.33,0)">
            <g transform="matrix(0.627485,0,0,0.484197,-64.2324,294.743)">
                <path d="M869.478,282.817C875.201,282.817 880.689,285.763 884.736,291.007C888.782,296.251 891.056,303.364 891.056,310.78L891.056,702.267C891.056,709.683 888.782,716.796 884.736,722.04C880.689,727.284 875.201,730.23 869.478,730.23L718.433,730.23C623.096,730.23 545.81,630.073 545.81,506.524L545.81,338.743C545.81,307.856 565.131,282.817 588.965,282.817L869.478,282.817ZM718.433,528.894L718.433,596.006C718.433,601.939 720.251,607.629 723.489,611.825C726.726,616.02 731.117,618.377 735.695,618.377L787.482,618.377C792.06,618.377 796.451,616.02 799.688,611.825C802.925,607.629 804.744,601.939 804.744,596.006L804.744,417.041C804.744,404.686 797.016,394.67 787.482,394.67L649.383,394.67C644.805,394.67 640.415,397.027 637.177,401.222C633.94,405.418 632.121,411.108 632.121,417.041L632.121,484.153C632.121,490.086 633.94,495.776 637.177,499.971C640.415,504.167 644.805,506.524 649.383,506.524L701.17,506.524C705.749,506.524 710.139,508.88 713.377,513.076C716.614,517.271 718.433,522.961 718.433,528.894Z" style="fill:rgb(46,91,255);"/>
            </g>
        </g>
    </g>
</svg>
